# MagicaVoxel @ Ephtracy

# group
o 

# material
mtllib paeleraAzul.mtl
usemtl palette

# normals
vn -1 0 0
vn 1 0 0
vn 0 0 1
vn 0 0 -1
vn 0 -1 0
vn 0 1 0

# texcoords
vt 0.306641 0.5
vt 0.650391 0.5
vt 0.802734 0.5
vt 0.900391 0.5
vt 0.986328 0.5
vt 0.994141 0.5

# verts
v 1 0.9 -0.8
v 1 0.9 -1.8
v 1 1 -0.8
v 1 1 -1.8
v 1.1 0 -1.1
v 1.1 0 -1.5
v 1.1 0.1 -1.1
v 1.1 0.1 -1.5
v 1.1 0.8 -0.9
v 1.1 0.8 -1.7
v 1.1 0.9 -0.9
v 1.1 0.9 -1.7
v 1.1 1 -0.9
v 1.1 1 -1.7
v 1.1 1.1 -1.2
v 1.1 1.1 -1.4
v 1.1 1.2 -0.9
v 1.1 1.2 -1.1
v 1.1 1.2 -1.2
v 1.1 1.2 -1.4
v 1.1 1.2 -1.5
v 1.1 1.2 -1.7
v 1.1 1.3 -1.1
v 1.1 1.3 -1.5
v 1.2 0.1 -1
v 1.2 0.1 -1.1
v 1.2 0.1 -1.2
v 1.2 0.1 -1.4
v 1.2 0.1 -1.5
v 1.2 0.1 -1.6
v 1.2 0.2 -1.2
v 1.2 0.2 -1.4
v 1.2 0.8 -1
v 1.2 0.8 -1.2
v 1.2 0.8 -1.4
v 1.2 0.8 -1.6
v 1.2 1.1 -1.2
v 1.2 1.1 -1.4
v 1.2 1.2 -1.2
v 1.2 1.2 -1.4
v 1.2 1.2 -1.5
v 1.2 1.2 -1.7
v 1.2 1.3 -1.1
v 1.2 1.3 -1.5
v 1.2 1.3 -1.7
v 1.2 1.4 -1.1
v 1.2 1.4 -1.5
v 1.3 0.2 -1.2
v 1.3 0.2 -1.4
v 1.3 0.8 -1.2
v 1.3 0.8 -1.4
v 1.3 0.9 -1.2
v 1.3 0.9 -1.4
v 1.3 1 -1.2
v 1.3 1 -1.4
v 1.3 1.2 -0.9
v 1.3 1.2 -1.1
v 1.3 1.3 -0.9
v 1.3 1.3 -1.1
v 1.6 0 -0.9
v 1.6 0 -1
v 1.6 0 -1.6
v 1.6 0 -1.7
v 1.6 0.1 -1
v 1.6 0.1 -1.6
v 1.6 0.2 -0.9
v 1.6 0.2 -1
v 1.6 0.2 -1.6
v 1.6 0.2 -1.7
v 1.7 0.2 -1.1
v 1.7 0.2 -1.5
v 1.7 0.8 -1.1
v 1.7 0.8 -1.5
v 1.7 0.9 -1.1
v 1.7 0.9 -1.5
v 1.7 1 -1
v 1.7 1 -1.2
v 1.7 1 -1.6
v 1.7 1.1 -1
v 1.7 1.1 -1.2
v 1.7 1.1 -1.6
v 1.8 0.9 -1
v 1.8 0.9 -1.1
v 1.8 0.9 -1.6
v 1.8 1 -1
v 1.8 1 -1.2
v 1.8 1 -1.6
v 1.8 1.2 -0.8
v 1.8 1.2 -0.9
v 1.8 1.2 -1.7
v 1.8 1.2 -1.8
v 1.8 1.3 -0.8
v 1.8 1.3 -0.9
v 1.8 1.3 -1.7
v 1.8 1.3 -1.8
v 1.2 0.9 -1
v 1.2 0.9 -1.1
v 1.2 0.9 -1.2
v 1.2 0.9 -1.4
v 1.2 0.9 -1.5
v 1.2 0.9 -1.6
v 1.2 1 -1
v 1.2 1 -1.1
v 1.2 1 -1.2
v 1.2 1 -1.4
v 1.2 1 -1.5
v 1.2 1 -1.6
v 1.2 1.1 -1
v 1.2 1.1 -1.2
v 1.2 1.1 -1.4
v 1.2 1.1 -1.6
v 1.3 0 -1.1
v 1.3 0 -1.5
v 1.3 0.1 -1.1
v 1.3 0.1 -1.5
v 1.3 0.2 -1.1
v 1.3 0.2 -1.2
v 1.3 0.2 -1.4
v 1.3 0.2 -1.5
v 1.3 0.8 -1.2
v 1.3 0.8 -1.4
v 1.3 0.8 -1.5
v 1.3 0.9 -1.1
v 1.3 0.9 -1.2
v 1.3 0.9 -1.4
v 1.3 0.9 -1.5
v 1.3 1 -1.1
v 1.3 1 -1.2
v 1.3 1 -1.4
v 1.3 1 -1.5
v 1.3 1.1 -1.2
v 1.3 1.1 -1.4
v 1.4 0.2 -1.2
v 1.4 0.2 -1.4
v 1.4 0.8 -1.2
v 1.4 0.8 -1.4
v 1.4 0.9 -1.2
v 1.4 0.9 -1.4
v 1.4 1 -1.2
v 1.4 1 -1.4
v 1.8 0 -0.9
v 1.8 0 -1
v 1.8 0 -1.6
v 1.8 0 -1.7
v 1.8 0.1 -1
v 1.8 0.1 -1.6
v 1.8 0.2 -0.9
v 1.8 0.2 -1
v 1.8 0.2 -1.6
v 1.8 0.2 -1.7
v 1.8 0.8 -1
v 1.8 0.8 -1.6
v 1.8 1.3 -1.1
v 1.8 1.3 -1.5
v 1.8 1.4 -1.1
v 1.8 1.4 -1.5
v 1.9 0.8 -0.9
v 1.9 0.8 -1.7
v 1.9 0.9 -0.9
v 1.9 0.9 -1.7
v 1.9 1 -0.9
v 1.9 1 -1.7
v 1.9 1.2 -0.8
v 1.9 1.2 -0.9
v 1.9 1.2 -1.7
v 1.9 1.2 -1.8
v 1.9 1.3 -0.8
v 1.9 1.3 -0.9
v 1.9 1.3 -1.7
v 1.9 1.3 -1.8
v 2 0.9 -0.8
v 2 0.9 -1.8
v 2 1 -0.8
v 2 1 -1.8
v 1 0.9 -0.8
v 1 1 -0.8
v 1.8 1.2 -0.8
v 1.8 1.3 -0.8
v 1.9 1.2 -0.8
v 1.9 1.3 -0.8
v 2 0.9 -0.8
v 2 1 -0.8
v 1.1 0.8 -0.9
v 1.1 0.9 -0.9
v 1.1 1 -0.9
v 1.1 1.2 -0.9
v 1.3 1.2 -0.9
v 1.3 1.3 -0.9
v 1.6 0 -0.9
v 1.6 0.2 -0.9
v 1.8 0 -0.9
v 1.8 0.2 -0.9
v 1.8 1.2 -0.9
v 1.8 1.3 -0.9
v 1.9 0.8 -0.9
v 1.9 0.9 -0.9
v 1.9 1 -0.9
v 1.9 1.2 -0.9
v 1.2 0.1 -1
v 1.2 0.8 -1
v 1.6 0.1 -1
v 1.6 0.2 -1
v 1.8 0.2 -1
v 1.8 0.8 -1
v 1.1 0 -1.1
v 1.1 0.1 -1.1
v 1.1 1.2 -1.1
v 1.1 1.3 -1.1
v 1.2 0.1 -1.1
v 1.2 0.9 -1.1
v 1.2 1 -1.1
v 1.2 1.3 -1.1
v 1.2 1.4 -1.1
v 1.3 0 -1.1
v 1.3 0.1 -1.1
v 1.3 0.9 -1.1
v 1.3 1 -1.1
v 1.3 1.2 -1.1
v 1.3 1.3 -1.1
v 1.8 1.3 -1.1
v 1.8 1.4 -1.1
v 1.2 1 -1.2
v 1.2 1.1 -1.2
v 1.3 0.2 -1.2
v 1.3 0.8 -1.2
v 1.3 0.9 -1.2
v 1.3 1 -1.2
v 1.3 1.1 -1.2
v 1.4 0.2 -1.2
v 1.4 0.8 -1.2
v 1.4 0.9 -1.2
v 1.4 1 -1.2
v 1.1 1.1 -1.4
v 1.1 1.2 -1.4
v 1.2 0.2 -1.4
v 1.2 0.8 -1.4
v 1.2 0.9 -1.4
v 1.2 1 -1.4
v 1.2 1.1 -1.4
v 1.2 1.2 -1.4
v 1.3 0.2 -1.4
v 1.3 0.8 -1.4
v 1.3 0.9 -1.4
v 1.3 1 -1.4
v 1.3 0.2 -1.5
v 1.3 0.8 -1.5
v 1.3 0.9 -1.5
v 1.7 0.2 -1.5
v 1.7 0.8 -1.5
v 1.7 0.9 -1.5
v 1.2 0.9 -1.6
v 1.2 1 -1.6
v 1.2 1.1 -1.6
v 1.3 0.9 -1.6
v 1.4 1.1 -1.6
v 1.6 0 -1.6
v 1.6 0.1 -1.6
v 1.7 1 -1.6
v 1.7 1.1 -1.6
v 1.8 0 -1.6
v 1.8 0.1 -1.6
v 1.8 0.9 -1.6
v 1.8 1 -1.6
v 1.2 0.9 -1
v 1.2 1 -1
v 1.2 1.1 -1
v 1.4 1.1 -1
v 1.6 0 -1
v 1.6 0.1 -1
v 1.7 1 -1
v 1.7 1.1 -1
v 1.8 0 -1
v 1.8 0.1 -1
v 1.8 0.9 -1
v 1.8 1 -1
v 1.3 0.2 -1.1
v 1.3 0.9 -1.1
v 1.7 0.2 -1.1
v 1.7 0.8 -1.1
v 1.7 0.9 -1.1
v 1.1 1.1 -1.2
v 1.1 1.2 -1.2
v 1.2 0.2 -1.2
v 1.2 0.8 -1.2
v 1.2 0.9 -1.2
v 1.2 1 -1.2
v 1.2 1.1 -1.2
v 1.2 1.2 -1.2
v 1.3 0.2 -1.2
v 1.3 0.8 -1.2
v 1.3 0.9 -1.2
v 1.3 1 -1.2
v 1.2 1 -1.4
v 1.2 1.1 -1.4
v 1.3 0.2 -1.4
v 1.3 0.8 -1.4
v 1.3 0.9 -1.4
v 1.3 1 -1.4
v 1.3 1.1 -1.4
v 1.4 0.2 -1.4
v 1.4 0.8 -1.4
v 1.4 0.9 -1.4
v 1.4 1 -1.4
v 1.1 0 -1.5
v 1.1 0.1 -1.5
v 1.1 1.2 -1.5
v 1.1 1.3 -1.5
v 1.2 0.1 -1.5
v 1.2 0.9 -1.5
v 1.2 1 -1.5
v 1.2 1.2 -1.5
v 1.2 1.3 -1.5
v 1.2 1.4 -1.5
v 1.3 0 -1.5
v 1.3 0.1 -1.5
v 1.3 0.9 -1.5
v 1.3 1 -1.5
v 1.8 1.3 -1.5
v 1.8 1.4 -1.5
v 1.2 0.1 -1.6
v 1.2 0.8 -1.6
v 1.6 0.1 -1.6
v 1.6 0.2 -1.6
v 1.8 0.2 -1.6
v 1.8 0.8 -1.6
v 1.1 0.8 -1.7
v 1.1 0.9 -1.7
v 1.1 1 -1.7
v 1.1 1.2 -1.7
v 1.2 1.2 -1.7
v 1.2 1.3 -1.7
v 1.6 0 -1.7
v 1.6 0.2 -1.7
v 1.8 0 -1.7
v 1.8 0.2 -1.7
v 1.8 1.2 -1.7
v 1.8 1.3 -1.7
v 1.9 0.8 -1.7
v 1.9 0.9 -1.7
v 1.9 1 -1.7
v 1.9 1.2 -1.7
v 1 0.9 -1.8
v 1 1 -1.8
v 1.8 1.2 -1.8
v 1.8 1.3 -1.8
v 1.9 1.2 -1.8
v 1.9 1.3 -1.8
v 2 0.9 -1.8
v 2 1 -1.8
v 1.6 0 -0.9
v 1.8 0 -0.9
v 1.6 0 -1
v 1.8 0 -1
v 1.1 0 -1.1
v 1.3 0 -1.1
v 1.1 0 -1.5
v 1.3 0 -1.5
v 1.6 0 -1.6
v 1.8 0 -1.6
v 1.6 0 -1.7
v 1.8 0 -1.7
v 1.2 0.1 -1
v 1.6 0.1 -1
v 1.8 0.1 -1
v 1.2 0.1 -1.1
v 1.3 0.1 -1.1
v 1.2 0.1 -1.5
v 1.3 0.1 -1.5
v 1.2 0.1 -1.6
v 1.6 0.1 -1.6
v 1.8 0.1 -1.6
v 1.1 0.8 -0.9
v 1.9 0.8 -0.9
v 1.2 0.8 -1
v 1.8 0.8 -1
v 1.2 0.8 -1.2
v 1.3 0.8 -1.2
v 1.2 0.8 -1.4
v 1.3 0.8 -1.4
v 1.2 0.8 -1.6
v 1.8 0.8 -1.6
v 1.1 0.8 -1.7
v 1.9 0.8 -1.7
v 1 0.9 -0.8
v 2 0.9 -0.8
v 1.1 0.9 -0.9
v 1.9 0.9 -0.9
v 1.1 0.9 -1.7
v 1.9 0.9 -1.7
v 1 0.9 -1.8
v 2 0.9 -1.8
v 1.7 1 -1
v 1.8 1 -1
v 1.2 1 -1.2
v 1.3 1 -1.2
v 1.7 1 -1.2
v 1.8 1 -1.2
v 1.2 1 -1.4
v 1.3 1 -1.4
v 1.7 1 -1.6
v 1.8 1 -1.6
v 1.2 1.1 -1
v 1.4 1.1 -1
v 1.7 1.1 -1
v 1.2 1.1 -1.2
v 1.3 1.1 -1.2
v 1.4 1.1 -1.2
v 1.7 1.1 -1.2
v 1.2 1.1 -1.4
v 1.3 1.1 -1.4
v 1.2 1.1 -1.6
v 1.4 1.1 -1.6
v 1.7 1.1 -1.6
v 1.8 1.2 -0.8
v 1.9 1.2 -0.8
v 1.8 1.2 -0.9
v 1.9 1.2 -0.9
v 1.1 1.2 -1.2
v 1.2 1.2 -1.2
v 1.1 1.2 -1.4
v 1.2 1.2 -1.4
v 1.8 1.2 -1.7
v 1.9 1.2 -1.7
v 1.8 1.2 -1.8
v 1.9 1.2 -1.8
v 1.1 0.1 -1.1
v 1.2 0.1 -1.1
v 1.2 0.1 -1.2
v 1.2 0.1 -1.4
v 1.1 0.1 -1.5
v 1.2 0.1 -1.5
v 1.6 0.2 -0.9
v 1.8 0.2 -0.9
v 1.6 0.2 -1
v 1.8 0.2 -1
v 1.3 0.2 -1.1
v 1.7 0.2 -1.1
v 1.2 0.2 -1.2
v 1.3 0.2 -1.2
v 1.4 0.2 -1.2
v 1.2 0.2 -1.4
v 1.3 0.2 -1.4
v 1.4 0.2 -1.4
v 1.3 0.2 -1.5
v 1.7 0.2 -1.5
v 1.6 0.2 -1.6
v 1.8 0.2 -1.6
v 1.6 0.2 -1.7
v 1.8 0.2 -1.7
v 1.2 0.9 -1
v 1.8 0.9 -1
v 1.2 0.9 -1.1
v 1.3 0.9 -1.1
v 1.7 0.9 -1.1
v 1.8 0.9 -1.1
v 1.2 0.9 -1.2
v 1.3 0.9 -1.2
v 1.2 0.9 -1.4
v 1.3 0.9 -1.4
v 1.2 0.9 -1.5
v 1.3 0.9 -1.5
v 1.7 0.9 -1.5
v 1.2 0.9 -1.6
v 1.3 0.9 -1.6
v 1.8 0.9 -1.6
v 1 1 -0.8
v 2 1 -0.8
v 1.1 1 -0.9
v 1.9 1 -0.9
v 1.2 1 -1.1
v 1.3 1 -1.1
v 1.2 1 -1.2
v 1.3 1 -1.2
v 1.4 1 -1.2
v 1.2 1 -1.4
v 1.3 1 -1.4
v 1.4 1 -1.4
v 1.2 1 -1.5
v 1.3 1 -1.5
v 1.1 1 -1.7
v 1.9 1 -1.7
v 1 1 -1.8
v 2 1 -1.8
v 1.1 1.1 -1.2
v 1.2 1.1 -1.2
v 1.1 1.1 -1.4
v 1.2 1.1 -1.4
v 1.1 1.2 -0.9
v 1.3 1.2 -0.9
v 1.1 1.2 -1.1
v 1.3 1.2 -1.1
v 1.1 1.2 -1.5
v 1.2 1.2 -1.5
v 1.1 1.2 -1.7
v 1.2 1.2 -1.7
v 1.8 1.3 -0.8
v 1.9 1.3 -0.8
v 1.3 1.3 -0.9
v 1.8 1.3 -0.9
v 1.9 1.3 -0.9
v 1.1 1.3 -1.1
v 1.2 1.3 -1.1
v 1.3 1.3 -1.1
v 1.8 1.3 -1.1
v 1.1 1.3 -1.5
v 1.2 1.3 -1.5
v 1.8 1.3 -1.5
v 1.2 1.3 -1.7
v 1.8 1.3 -1.7
v 1.9 1.3 -1.7
v 1.8 1.3 -1.8
v 1.9 1.3 -1.8
v 1.2 1.4 -1.1
v 1.8 1.4 -1.1
v 1.2 1.4 -1.5
v 1.8 1.4 -1.5

# faces
f 3/5/1 2/5/1 1/5/1
f 4/5/1 2/5/1 3/5/1
f 7/6/1 6/6/1 5/6/1
f 8/6/1 6/6/1 7/6/1
f 11/5/1 10/5/1 9/5/1
f 12/5/1 10/5/1 11/5/1
f 15/3/1 14/3/1 13/3/1
f 16/3/1 14/3/1 15/3/1
f 17/3/1 15/3/1 13/3/1
f 18/3/1 15/3/1 17/3/1
f 19/3/1 15/3/1 18/3/1
f 20/3/1 14/3/1 16/3/1
f 21/3/1 14/3/1 20/3/1
f 22/3/1 14/3/1 21/3/1
f 23/3/1 19/3/1 18/3/1
f 23/3/1 21/3/1 20/3/1
f 23/3/1 20/3/1 19/3/1
f 24/3/1 21/3/1 23/3/1
f 31/5/1 26/5/1 25/5/1
f 31/5/1 27/5/1 26/5/1
f 31/6/1 28/6/1 27/6/1
f 32/5/1 30/5/1 29/5/1
f 32/6/1 28/6/1 31/6/1
f 32/5/1 29/5/1 28/5/1
f 33/5/1 31/5/1 25/5/1
f 34/5/1 31/5/1 33/5/1
f 35/5/1 30/5/1 32/5/1
f 36/5/1 30/5/1 35/5/1
f 39/3/1 38/3/1 37/3/1
f 40/3/1 38/3/1 39/3/1
f 44/3/1 42/3/1 41/3/1
f 45/3/1 42/3/1 44/3/1
f 46/3/1 44/3/1 43/3/1
f 47/3/1 44/3/1 46/3/1
f 50/6/1 49/6/1 48/6/1
f 51/6/1 49/6/1 50/6/1
f 54/5/1 53/5/1 52/5/1
f 55/5/1 53/5/1 54/5/1
f 58/3/1 57/3/1 56/3/1
f 59/3/1 57/3/1 58/3/1
f 64/6/1 61/6/1 60/6/1
f 65/6/1 63/6/1 62/6/1
f 66/6/1 64/6/1 60/6/1
f 67/6/1 64/6/1 66/6/1
f 68/6/1 63/6/1 65/6/1
f 69/6/1 63/6/1 68/6/1
f 72/5/1 71/5/1 70/5/1
f 73/5/1 71/5/1 72/5/1
f 74/4/1 73/4/1 72/4/1
f 75/4/1 73/4/1 74/4/1
f 79/2/1 77/2/1 76/2/1
f 80/1/1 78/1/1 77/1/1
f 80/2/1 77/2/1 79/2/1
f 81/1/1 78/1/1 80/1/1
f 85/5/1 83/5/1 82/5/1
f 85/5/1 84/5/1 83/5/1
f 86/5/1 84/5/1 85/5/1
f 87/5/1 84/5/1 86/5/1
f 92/6/1 89/6/1 88/6/1
f 93/6/1 89/6/1 92/6/1
f 94/6/1 91/6/1 90/6/1
f 95/6/1 91/6/1 94/6/1
f 96/5/2 97/5/2 102/5/2
f 102/5/2 97/5/2 103/5/2
f 98/5/2 99/5/2 104/5/2
f 104/5/2 99/5/2 105/5/2
f 100/5/2 101/5/2 106/5/2
f 106/5/2 101/5/2 107/5/2
f 102/3/2 103/3/2 108/3/2
f 103/3/2 104/3/2 108/3/2
f 108/3/2 104/3/2 109/3/2
f 106/3/2 107/3/2 110/3/2
f 105/3/2 106/3/2 110/3/2
f 110/3/2 107/3/2 111/3/2
f 112/6/2 113/6/2 114/6/2
f 114/6/2 113/6/2 115/6/2
f 116/5/2 117/5/2 120/5/2
f 118/5/2 119/5/2 121/5/2
f 121/5/2 119/5/2 122/5/2
f 116/5/2 120/5/2 123/5/2
f 123/5/2 120/5/2 124/5/2
f 121/5/2 122/5/2 125/5/2
f 125/5/2 122/5/2 126/5/2
f 123/5/2 124/5/2 127/5/2
f 127/5/2 124/5/2 128/5/2
f 125/5/2 126/5/2 129/5/2
f 129/5/2 126/5/2 130/5/2
f 128/3/2 129/3/2 131/3/2
f 131/3/2 129/3/2 132/3/2
f 133/6/2 134/6/2 135/6/2
f 135/6/2 134/6/2 136/6/2
f 135/4/2 136/4/2 137/4/2
f 137/4/2 136/4/2 138/4/2
f 137/5/2 138/5/2 139/5/2
f 139/5/2 138/5/2 140/5/2
f 141/6/2 142/6/2 145/6/2
f 143/6/2 144/6/2 146/6/2
f 141/6/2 145/6/2 147/6/2
f 145/5/2 146/5/2 148/5/2
f 147/6/2 145/6/2 148/6/2
f 146/6/2 144/6/2 149/6/2
f 148/5/2 146/5/2 149/5/2
f 149/6/2 144/6/2 150/6/2
f 148/5/2 149/5/2 151/5/2
f 151/5/2 149/5/2 152/5/2
f 153/3/2 154/3/2 155/3/2
f 155/3/2 154/3/2 156/3/2
f 157/5/2 158/5/2 159/5/2
f 159/5/2 158/5/2 160/5/2
f 161/3/2 162/3/2 164/3/2
f 164/3/2 162/3/2 165/3/2
f 163/6/2 164/6/2 167/6/2
f 164/3/2 165/3/2 168/3/2
f 167/6/2 164/6/2 168/6/2
f 165/6/2 166/6/2 169/6/2
f 168/3/2 165/3/2 169/3/2
f 169/6/2 166/6/2 170/6/2
f 171/5/2 172/5/2 173/5/2
f 173/5/2 172/5/2 174/5/2
f 179/6/3 178/6/3 177/6/3
f 180/6/3 178/6/3 179/6/3
f 181/5/3 176/5/3 175/5/3
f 182/5/3 176/5/3 181/5/3
f 187/3/3 186/3/3 185/3/3
f 191/6/3 190/6/3 189/6/3
f 192/6/3 190/6/3 191/6/3
f 193/3/3 187/3/3 185/3/3
f 193/3/3 188/3/3 187/3/3
f 194/3/3 188/3/3 193/3/3
f 195/5/3 184/5/3 183/5/3
f 196/5/3 184/5/3 195/5/3
f 197/3/3 193/3/3 185/3/3
f 198/3/3 193/3/3 197/3/3
f 201/5/3 200/5/3 199/5/3
f 202/5/3 200/5/3 201/5/3
f 203/5/3 200/5/3 202/5/3
f 204/5/3 200/5/3 203/5/3
f 209/6/3 206/6/3 205/6/3
f 212/3/3 208/3/3 207/3/3
f 214/6/3 209/6/3 205/6/3
f 215/6/3 209/6/3 214/6/3
f 216/5/3 211/5/3 210/5/3
f 217/5/3 211/5/3 216/5/3
f 218/3/3 213/3/3 212/3/3
f 218/3/3 212/3/3 207/3/3
f 219/3/3 213/3/3 218/3/3
f 220/3/3 213/3/3 219/3/3
f 221/3/3 213/3/3 220/3/3
f 227/3/3 223/3/3 222/3/3
f 228/3/3 223/3/3 227/3/3
f 229/6/3 225/6/3 224/6/3
f 230/4/3 226/4/3 225/4/3
f 230/6/3 225/6/3 229/6/3
f 231/5/3 227/5/3 226/5/3
f 231/4/3 226/4/3 230/4/3
f 232/5/3 227/5/3 231/5/3
f 239/3/3 234/3/3 233/3/3
f 240/3/3 234/3/3 239/3/3
f 241/5/3 236/5/3 235/5/3
f 242/5/3 236/5/3 241/5/3
f 243/5/3 238/5/3 237/5/3
f 244/5/3 238/5/3 243/5/3
f 248/5/3 246/5/3 245/5/3
f 249/4/3 247/4/3 246/4/3
f 249/5/3 246/5/3 248/5/3
f 250/4/3 247/4/3 249/4/3
f 254/5/3 252/5/3 251/5/3
f 255/3/3 253/3/3 252/3/3
f 258/5/3 252/5/3 254/5/3
f 258/3/3 255/3/3 252/3/3
f 259/3/3 255/3/3 258/3/3
f 260/6/3 257/6/3 256/6/3
f 261/6/3 257/6/3 260/6/3
f 262/5/3 258/5/3 254/5/3
f 263/5/3 258/5/3 262/5/3
f 265/3/4 266/3/4 267/3/4
f 264/5/4 265/5/4 270/5/4
f 265/3/4 267/3/4 270/3/4
f 270/3/4 267/3/4 271/3/4
f 268/6/4 269/6/4 272/6/4
f 272/6/4 269/6/4 273/6/4
f 264/5/4 270/5/4 274/5/4
f 274/5/4 270/5/4 275/5/4
f 276/5/4 277/5/4 278/5/4
f 278/5/4 277/5/4 279/5/4
f 279/5/4 277/5/4 280/5/4
f 281/3/4 282/3/4 287/3/4
f 287/3/4 282/3/4 288/3/4
f 283/5/4 284/5/4 289/5/4
f 289/5/4 284/5/4 290/5/4
f 285/5/4 286/5/4 291/5/4
f 291/5/4 286/5/4 292/5/4
f 293/3/4 294/3/4 298/3/4
f 298/3/4 294/3/4 299/3/4
f 295/6/4 296/6/4 300/6/4
f 296/4/4 297/4/4 301/4/4
f 300/6/4 296/6/4 301/6/4
f 297/5/4 298/5/4 302/5/4
f 301/4/4 297/4/4 302/4/4
f 302/5/4 298/5/4 303/5/4
f 304/6/4 305/6/4 308/6/4
f 306/3/4 307/3/4 311/3/4
f 311/3/4 307/3/4 312/3/4
f 304/6/4 308/6/4 314/6/4
f 314/6/4 308/6/4 315/6/4
f 309/5/4 310/5/4 316/5/4
f 316/5/4 310/5/4 317/5/4
f 312/3/4 313/3/4 318/3/4
f 318/3/4 313/3/4 319/3/4
f 320/5/4 321/5/4 322/5/4
f 322/5/4 321/5/4 323/5/4
f 323/5/4 321/5/4 324/5/4
f 324/5/4 321/5/4 325/5/4
f 328/3/4 329/3/4 330/3/4
f 332/6/4 333/6/4 334/6/4
f 334/6/4 333/6/4 335/6/4
f 328/3/4 330/3/4 336/3/4
f 330/3/4 331/3/4 336/3/4
f 336/3/4 331/3/4 337/3/4
f 326/5/4 327/5/4 338/5/4
f 338/5/4 327/5/4 339/5/4
f 328/3/4 336/3/4 340/3/4
f 340/3/4 336/3/4 341/3/4
f 344/6/4 345/6/4 346/6/4
f 346/6/4 345/6/4 347/6/4
f 342/5/4 343/5/4 348/5/4
f 348/5/4 343/5/4 349/5/4
f 352/6/5 351/6/5 350/6/5
f 353/6/5 351/6/5 352/6/5
f 356/6/5 355/6/5 354/6/5
f 357/6/5 355/6/5 356/6/5
f 360/6/5 359/6/5 358/6/5
f 361/6/5 359/6/5 360/6/5
f 365/5/5 363/5/5 362/5/5
f 365/5/5 364/5/5 363/5/5
f 366/5/5 364/5/5 365/5/5
f 368/5/5 364/5/5 366/5/5
f 369/5/5 368/5/5 367/5/5
f 370/5/5 364/5/5 368/5/5
f 370/5/5 368/5/5 369/5/5
f 371/5/5 364/5/5 370/5/5
f 374/5/5 373/5/5 372/5/5
f 375/5/5 373/5/5 374/5/5
f 376/5/5 374/5/5 372/5/5
f 378/5/5 376/5/5 372/5/5
f 378/5/5 377/5/5 376/5/5
f 379/5/5 377/5/5 378/5/5
f 380/5/5 378/5/5 372/5/5
f 381/5/5 373/5/5 375/5/5
f 382/5/5 380/5/5 372/5/5
f 382/5/5 381/5/5 380/5/5
f 383/5/5 373/5/5 381/5/5
f 383/5/5 381/5/5 382/5/5
f 386/5/5 385/5/5 384/5/5
f 387/5/5 385/5/5 386/5/5
f 388/5/5 386/5/5 384/5/5
f 389/5/5 385/5/5 387/5/5
f 390/5/5 388/5/5 384/5/5
f 390/5/5 389/5/5 388/5/5
f 391/5/5 385/5/5 389/5/5
f 391/5/5 389/5/5 390/5/5
f 396/2/5 393/2/5 392/2/5
f 397/2/5 393/2/5 396/2/5
f 398/3/5 395/3/5 394/3/5
f 399/3/5 395/3/5 398/3/5
f 400/1/5 397/1/5 396/1/5
f 401/1/5 397/1/5 400/1/5
f 405/3/5 403/3/5 402/3/5
f 406/3/5 403/3/5 405/3/5
f 407/2/5 404/2/5 403/2/5
f 407/3/5 403/3/5 406/3/5
f 408/2/5 404/2/5 407/2/5
f 410/3/5 407/3/5 406/3/5
f 411/3/5 410/3/5 409/3/5
f 412/1/5 408/1/5 407/1/5
f 412/3/5 410/3/5 411/3/5
f 412/3/5 407/3/5 410/3/5
f 413/1/5 408/1/5 412/1/5
f 416/6/5 415/6/5 414/6/5
f 417/6/5 415/6/5 416/6/5
f 420/3/5 419/3/5 418/3/5
f 421/3/5 419/3/5 420/3/5
f 424/6/5 423/6/5 422/6/5
f 425/6/5 423/6/5 424/6/5
f 426/6/6 427/6/6 428/6/6
f 426/6/6 428/6/6 429/6/6
f 426/6/6 429/6/6 430/6/6
f 430/6/6 429/6/6 431/6/6
f 432/6/6 433/6/6 434/6/6
f 434/6/6 433/6/6 435/6/6
f 436/5/6 437/5/6 439/5/6
f 439/5/6 437/5/6 440/5/6
f 438/6/6 439/6/6 441/6/6
f 441/6/6 439/6/6 442/6/6
f 440/5/6 437/5/6 443/5/6
f 442/5/6 443/5/6 444/5/6
f 443/5/6 437/5/6 445/5/6
f 444/5/6 443/5/6 445/5/6
f 446/6/6 447/6/6 448/6/6
f 448/6/6 447/6/6 449/6/6
f 450/5/6 451/5/6 452/5/6
f 452/5/6 451/5/6 453/5/6
f 453/5/6 451/5/6 454/5/6
f 454/5/6 451/5/6 455/5/6
f 456/5/6 457/5/6 458/5/6
f 458/5/6 457/5/6 459/5/6
f 454/4/6 455/4/6 462/4/6
f 460/5/6 461/5/6 463/5/6
f 461/4/6 462/4/6 464/4/6
f 463/5/6 461/5/6 464/5/6
f 462/4/6 455/4/6 465/4/6
f 464/4/6 462/4/6 465/4/6
f 466/5/6 467/5/6 468/5/6
f 468/5/6 467/5/6 469/5/6
f 470/5/6 471/5/6 472/5/6
f 472/5/6 471/5/6 473/5/6
f 473/5/6 474/5/6 476/5/6
f 476/5/6 474/5/6 477/5/6
f 475/5/6 476/5/6 478/5/6
f 478/5/6 476/5/6 479/5/6
f 466/5/6 468/5/6 480/5/6
f 469/5/6 467/5/6 481/5/6
f 466/5/6 480/5/6 482/5/6
f 480/5/6 481/5/6 482/5/6
f 481/5/6 467/5/6 483/5/6
f 482/5/6 481/5/6 483/5/6
f 484/3/6 485/3/6 486/3/6
f 486/3/6 485/3/6 487/3/6
f 488/3/6 489/3/6 490/3/6
f 490/3/6 489/3/6 491/3/6
f 492/3/6 493/3/6 494/3/6
f 494/3/6 493/3/6 495/3/6
f 496/6/6 497/6/6 499/6/6
f 499/6/6 497/6/6 500/6/6
f 498/3/6 499/3/6 503/3/6
f 499/3/6 500/3/6 503/3/6
f 503/3/6 500/3/6 504/3/6
f 501/3/6 502/3/6 505/3/6
f 505/3/6 502/3/6 506/3/6
f 504/3/6 500/3/6 507/3/6
f 506/3/6 507/3/6 508/3/6
f 507/3/6 500/3/6 509/3/6
f 508/3/6 507/3/6 509/3/6
f 509/3/6 500/3/6 510/3/6
f 509/6/6 510/6/6 511/6/6
f 511/6/6 510/6/6 512/6/6
f 513/3/6 514/3/6 515/3/6
f 515/3/6 514/3/6 516/3/6
