# MagicaVoxel @ Ephtracy

# group
o 

# material
mtllib paeleraAmarilla.mtl
usemtl palette

# normals
vn -1 0 0
vn 1 0 0
vn 0 0 1
vn 0 0 -1
vn 0 -1 0
vn 0 1 0

# texcoords
vt 0.0136719 0.5
vt 0.0214844 0.5
vt 0.900391 0.5
vt 0.986328 0.5
vt 0.994141 0.5

# verts
v 1 0.9 -0.8
v 1 0.9 -1.8
v 1 1 -0.8
v 1 1 -1.8
v 1.1 0 -1.1
v 1.1 0 -1.5
v 1.1 0.1 -1.1
v 1.1 0.1 -1.5
v 1.1 0.8 -0.9
v 1.1 0.8 -1.7
v 1.1 0.9 -0.9
v 1.1 0.9 -1.7
v 1.1 1 -0.9
v 1.1 1 -1.7
v 1.1 1.1 -1.2
v 1.1 1.1 -1.4
v 1.1 1.2 -0.9
v 1.1 1.2 -1.1
v 1.1 1.2 -1.2
v 1.1 1.2 -1.4
v 1.1 1.2 -1.5
v 1.1 1.2 -1.7
v 1.1 1.3 -1.1
v 1.1 1.3 -1.5
v 1.2 0.1 -1
v 1.2 0.1 -1.1
v 1.2 0.1 -1.2
v 1.2 0.1 -1.4
v 1.2 0.1 -1.5
v 1.2 0.1 -1.6
v 1.2 0.2 -1.2
v 1.2 0.2 -1.4
v 1.2 0.8 -1
v 1.2 0.8 -1.2
v 1.2 0.8 -1.4
v 1.2 0.8 -1.6
v 1.2 1.1 -1.2
v 1.2 1.1 -1.4
v 1.2 1.2 -1.2
v 1.2 1.2 -1.4
v 1.2 1.2 -1.5
v 1.2 1.2 -1.7
v 1.2 1.3 -1.1
v 1.2 1.3 -1.5
v 1.2 1.3 -1.7
v 1.2 1.4 -1.1
v 1.2 1.4 -1.5
v 1.3 0.2 -1.2
v 1.3 0.2 -1.4
v 1.3 0.8 -1.2
v 1.3 0.8 -1.4
v 1.3 0.9 -1.2
v 1.3 0.9 -1.4
v 1.3 1 -1.2
v 1.3 1 -1.4
v 1.3 1.2 -0.9
v 1.3 1.2 -1.1
v 1.3 1.3 -0.9
v 1.3 1.3 -1.1
v 1.6 0 -0.9
v 1.6 0 -1
v 1.6 0 -1.6
v 1.6 0 -1.7
v 1.6 0.1 -1
v 1.6 0.1 -1.6
v 1.6 0.2 -0.9
v 1.6 0.2 -1
v 1.6 0.2 -1.6
v 1.6 0.2 -1.7
v 1.7 0.2 -1.1
v 1.7 0.2 -1.5
v 1.7 0.8 -1.1
v 1.7 0.8 -1.5
v 1.7 0.9 -1.1
v 1.7 0.9 -1.5
v 1.7 1 -1
v 1.7 1 -1.6
v 1.7 1.1 -1
v 1.7 1.1 -1.6
v 1.8 0.9 -1
v 1.8 0.9 -1.1
v 1.8 0.9 -1.6
v 1.8 1 -1
v 1.8 1 -1.6
v 1.8 1.2 -0.8
v 1.8 1.2 -0.9
v 1.8 1.2 -1.7
v 1.8 1.2 -1.8
v 1.8 1.3 -0.8
v 1.8 1.3 -0.9
v 1.8 1.3 -1.7
v 1.8 1.3 -1.8
v 1.2 0.9 -1
v 1.2 0.9 -1.1
v 1.2 0.9 -1.2
v 1.2 0.9 -1.4
v 1.2 0.9 -1.5
v 1.2 0.9 -1.6
v 1.2 1 -1
v 1.2 1 -1.1
v 1.2 1 -1.2
v 1.2 1 -1.4
v 1.2 1 -1.5
v 1.2 1 -1.6
v 1.2 1.1 -1
v 1.2 1.1 -1.2
v 1.2 1.1 -1.4
v 1.2 1.1 -1.6
v 1.3 0 -1.1
v 1.3 0 -1.5
v 1.3 0.1 -1.1
v 1.3 0.1 -1.5
v 1.3 0.2 -1.1
v 1.3 0.2 -1.2
v 1.3 0.2 -1.4
v 1.3 0.2 -1.5
v 1.3 0.8 -1.2
v 1.3 0.8 -1.4
v 1.3 0.8 -1.5
v 1.3 0.9 -1.1
v 1.3 0.9 -1.2
v 1.3 0.9 -1.4
v 1.3 0.9 -1.5
v 1.3 1 -1.1
v 1.3 1 -1.2
v 1.3 1 -1.4
v 1.3 1 -1.5
v 1.3 1.1 -1.2
v 1.3 1.1 -1.4
v 1.4 0.2 -1.2
v 1.4 0.2 -1.4
v 1.4 0.8 -1.2
v 1.4 0.8 -1.4
v 1.4 0.9 -1.2
v 1.4 0.9 -1.4
v 1.4 1 -1.2
v 1.4 1 -1.4
v 1.8 0 -0.9
v 1.8 0 -1
v 1.8 0 -1.6
v 1.8 0 -1.7
v 1.8 0.1 -1
v 1.8 0.1 -1.6
v 1.8 0.2 -0.9
v 1.8 0.2 -1
v 1.8 0.2 -1.6
v 1.8 0.2 -1.7
v 1.8 0.8 -1
v 1.8 0.8 -1.6
v 1.8 1.3 -1.1
v 1.8 1.3 -1.5
v 1.8 1.4 -1.1
v 1.8 1.4 -1.5
v 1.9 0.8 -0.9
v 1.9 0.8 -1.7
v 1.9 0.9 -0.9
v 1.9 0.9 -1.7
v 1.9 1 -0.9
v 1.9 1 -1.7
v 1.9 1.2 -0.8
v 1.9 1.2 -0.9
v 1.9 1.2 -1.7
v 1.9 1.2 -1.8
v 1.9 1.3 -0.8
v 1.9 1.3 -0.9
v 1.9 1.3 -1.7
v 1.9 1.3 -1.8
v 2 0.9 -0.8
v 2 0.9 -1.8
v 2 1 -0.8
v 2 1 -1.8
v 1 0.9 -0.8
v 1 1 -0.8
v 1.8 1.2 -0.8
v 1.8 1.3 -0.8
v 1.9 1.2 -0.8
v 1.9 1.3 -0.8
v 2 0.9 -0.8
v 2 1 -0.8
v 1.1 0.8 -0.9
v 1.1 0.9 -0.9
v 1.1 1 -0.9
v 1.1 1.2 -0.9
v 1.3 1.2 -0.9
v 1.3 1.3 -0.9
v 1.6 0 -0.9
v 1.6 0.2 -0.9
v 1.8 0 -0.9
v 1.8 0.2 -0.9
v 1.8 1.2 -0.9
v 1.8 1.3 -0.9
v 1.9 0.8 -0.9
v 1.9 0.9 -0.9
v 1.9 1 -0.9
v 1.9 1.2 -0.9
v 1.2 0.1 -1
v 1.2 0.8 -1
v 1.6 0.1 -1
v 1.6 0.2 -1
v 1.8 0.2 -1
v 1.8 0.8 -1
v 1.1 0 -1.1
v 1.1 0.1 -1.1
v 1.1 1.2 -1.1
v 1.1 1.3 -1.1
v 1.2 0.1 -1.1
v 1.2 0.9 -1.1
v 1.2 1 -1.1
v 1.2 1.3 -1.1
v 1.2 1.4 -1.1
v 1.3 0 -1.1
v 1.3 0.1 -1.1
v 1.3 0.9 -1.1
v 1.3 1 -1.1
v 1.3 1.2 -1.1
v 1.3 1.3 -1.1
v 1.8 1.3 -1.1
v 1.8 1.4 -1.1
v 1.2 1 -1.2
v 1.2 1.1 -1.2
v 1.3 0.2 -1.2
v 1.3 0.8 -1.2
v 1.3 0.9 -1.2
v 1.3 1 -1.2
v 1.3 1.1 -1.2
v 1.4 0.2 -1.2
v 1.4 0.8 -1.2
v 1.4 0.9 -1.2
v 1.4 1 -1.2
v 1.1 1.1 -1.4
v 1.1 1.2 -1.4
v 1.2 0.2 -1.4
v 1.2 0.8 -1.4
v 1.2 0.9 -1.4
v 1.2 1 -1.4
v 1.2 1.1 -1.4
v 1.2 1.2 -1.4
v 1.3 0.2 -1.4
v 1.3 0.8 -1.4
v 1.3 0.9 -1.4
v 1.3 1 -1.4
v 1.3 0.2 -1.5
v 1.3 0.8 -1.5
v 1.3 0.9 -1.5
v 1.7 0.2 -1.5
v 1.7 0.8 -1.5
v 1.7 0.9 -1.5
v 1.2 0.9 -1.6
v 1.2 1 -1.6
v 1.2 1.1 -1.6
v 1.3 0.9 -1.6
v 1.4 1.1 -1.6
v 1.6 0 -1.6
v 1.6 0.1 -1.6
v 1.7 1 -1.6
v 1.7 1.1 -1.6
v 1.8 0 -1.6
v 1.8 0.1 -1.6
v 1.8 0.9 -1.6
v 1.8 1 -1.6
v 1.2 0.9 -1
v 1.2 1 -1
v 1.2 1.1 -1
v 1.4 1.1 -1
v 1.6 0 -1
v 1.6 0.1 -1
v 1.7 1 -1
v 1.7 1.1 -1
v 1.8 0 -1
v 1.8 0.1 -1
v 1.8 0.9 -1
v 1.8 1 -1
v 1.3 0.2 -1.1
v 1.3 0.9 -1.1
v 1.7 0.2 -1.1
v 1.7 0.8 -1.1
v 1.7 0.9 -1.1
v 1.1 1.1 -1.2
v 1.1 1.2 -1.2
v 1.2 0.2 -1.2
v 1.2 0.8 -1.2
v 1.2 0.9 -1.2
v 1.2 1 -1.2
v 1.2 1.1 -1.2
v 1.2 1.2 -1.2
v 1.3 0.2 -1.2
v 1.3 0.8 -1.2
v 1.3 0.9 -1.2
v 1.3 1 -1.2
v 1.2 1 -1.4
v 1.2 1.1 -1.4
v 1.3 0.2 -1.4
v 1.3 0.8 -1.4
v 1.3 0.9 -1.4
v 1.3 1 -1.4
v 1.3 1.1 -1.4
v 1.4 0.2 -1.4
v 1.4 0.8 -1.4
v 1.4 0.9 -1.4
v 1.4 1 -1.4
v 1.1 0 -1.5
v 1.1 0.1 -1.5
v 1.1 1.2 -1.5
v 1.1 1.3 -1.5
v 1.2 0.1 -1.5
v 1.2 0.9 -1.5
v 1.2 1 -1.5
v 1.2 1.2 -1.5
v 1.2 1.3 -1.5
v 1.2 1.4 -1.5
v 1.3 0 -1.5
v 1.3 0.1 -1.5
v 1.3 0.9 -1.5
v 1.3 1 -1.5
v 1.8 1.3 -1.5
v 1.8 1.4 -1.5
v 1.2 0.1 -1.6
v 1.2 0.8 -1.6
v 1.6 0.1 -1.6
v 1.6 0.2 -1.6
v 1.8 0.2 -1.6
v 1.8 0.8 -1.6
v 1.1 0.8 -1.7
v 1.1 0.9 -1.7
v 1.1 1 -1.7
v 1.1 1.2 -1.7
v 1.2 1.2 -1.7
v 1.2 1.3 -1.7
v 1.6 0 -1.7
v 1.6 0.2 -1.7
v 1.8 0 -1.7
v 1.8 0.2 -1.7
v 1.8 1.2 -1.7
v 1.8 1.3 -1.7
v 1.9 0.8 -1.7
v 1.9 0.9 -1.7
v 1.9 1 -1.7
v 1.9 1.2 -1.7
v 1 0.9 -1.8
v 1 1 -1.8
v 1.8 1.2 -1.8
v 1.8 1.3 -1.8
v 1.9 1.2 -1.8
v 1.9 1.3 -1.8
v 2 0.9 -1.8
v 2 1 -1.8
v 1.6 0 -0.9
v 1.8 0 -0.9
v 1.6 0 -1
v 1.8 0 -1
v 1.1 0 -1.1
v 1.3 0 -1.1
v 1.1 0 -1.5
v 1.3 0 -1.5
v 1.6 0 -1.6
v 1.8 0 -1.6
v 1.6 0 -1.7
v 1.8 0 -1.7
v 1.2 0.1 -1
v 1.6 0.1 -1
v 1.8 0.1 -1
v 1.2 0.1 -1.1
v 1.3 0.1 -1.1
v 1.2 0.1 -1.5
v 1.3 0.1 -1.5
v 1.2 0.1 -1.6
v 1.6 0.1 -1.6
v 1.8 0.1 -1.6
v 1.1 0.8 -0.9
v 1.9 0.8 -0.9
v 1.2 0.8 -1
v 1.8 0.8 -1
v 1.2 0.8 -1.2
v 1.3 0.8 -1.2
v 1.2 0.8 -1.4
v 1.3 0.8 -1.4
v 1.2 0.8 -1.6
v 1.8 0.8 -1.6
v 1.1 0.8 -1.7
v 1.9 0.8 -1.7
v 1 0.9 -0.8
v 2 0.9 -0.8
v 1.1 0.9 -0.9
v 1.9 0.9 -0.9
v 1.1 0.9 -1.7
v 1.9 0.9 -1.7
v 1 0.9 -1.8
v 2 0.9 -1.8
v 1.7 1 -1
v 1.8 1 -1
v 1.2 1 -1.2
v 1.3 1 -1.2
v 1.2 1 -1.4
v 1.3 1 -1.4
v 1.7 1 -1.6
v 1.8 1 -1.6
v 1.2 1.1 -1
v 1.4 1.1 -1
v 1.7 1.1 -1
v 1.2 1.1 -1.2
v 1.3 1.1 -1.2
v 1.2 1.1 -1.4
v 1.3 1.1 -1.4
v 1.2 1.1 -1.6
v 1.4 1.1 -1.6
v 1.7 1.1 -1.6
v 1.8 1.2 -0.8
v 1.9 1.2 -0.8
v 1.8 1.2 -0.9
v 1.9 1.2 -0.9
v 1.1 1.2 -1.2
v 1.2 1.2 -1.2
v 1.1 1.2 -1.4
v 1.2 1.2 -1.4
v 1.8 1.2 -1.7
v 1.9 1.2 -1.7
v 1.8 1.2 -1.8
v 1.9 1.2 -1.8
v 1.1 0.1 -1.1
v 1.2 0.1 -1.1
v 1.2 0.1 -1.2
v 1.2 0.1 -1.4
v 1.1 0.1 -1.5
v 1.2 0.1 -1.5
v 1.6 0.2 -0.9
v 1.8 0.2 -0.9
v 1.6 0.2 -1
v 1.8 0.2 -1
v 1.3 0.2 -1.1
v 1.7 0.2 -1.1
v 1.2 0.2 -1.2
v 1.3 0.2 -1.2
v 1.4 0.2 -1.2
v 1.2 0.2 -1.4
v 1.3 0.2 -1.4
v 1.4 0.2 -1.4
v 1.3 0.2 -1.5
v 1.7 0.2 -1.5
v 1.6 0.2 -1.6
v 1.8 0.2 -1.6
v 1.6 0.2 -1.7
v 1.8 0.2 -1.7
v 1.2 0.9 -1
v 1.8 0.9 -1
v 1.2 0.9 -1.1
v 1.3 0.9 -1.1
v 1.7 0.9 -1.1
v 1.8 0.9 -1.1
v 1.2 0.9 -1.2
v 1.3 0.9 -1.2
v 1.2 0.9 -1.4
v 1.3 0.9 -1.4
v 1.2 0.9 -1.5
v 1.3 0.9 -1.5
v 1.7 0.9 -1.5
v 1.2 0.9 -1.6
v 1.3 0.9 -1.6
v 1.8 0.9 -1.6
v 1 1 -0.8
v 2 1 -0.8
v 1.1 1 -0.9
v 1.9 1 -0.9
v 1.2 1 -1.1
v 1.3 1 -1.1
v 1.2 1 -1.2
v 1.3 1 -1.2
v 1.4 1 -1.2
v 1.2 1 -1.4
v 1.3 1 -1.4
v 1.4 1 -1.4
v 1.2 1 -1.5
v 1.3 1 -1.5
v 1.1 1 -1.7
v 1.9 1 -1.7
v 1 1 -1.8
v 2 1 -1.8
v 1.1 1.1 -1.2
v 1.2 1.1 -1.2
v 1.1 1.1 -1.4
v 1.2 1.1 -1.4
v 1.1 1.2 -0.9
v 1.3 1.2 -0.9
v 1.1 1.2 -1.1
v 1.3 1.2 -1.1
v 1.1 1.2 -1.5
v 1.2 1.2 -1.5
v 1.1 1.2 -1.7
v 1.2 1.2 -1.7
v 1.8 1.3 -0.8
v 1.9 1.3 -0.8
v 1.3 1.3 -0.9
v 1.8 1.3 -0.9
v 1.9 1.3 -0.9
v 1.1 1.3 -1.1
v 1.2 1.3 -1.1
v 1.3 1.3 -1.1
v 1.8 1.3 -1.1
v 1.1 1.3 -1.5
v 1.2 1.3 -1.5
v 1.8 1.3 -1.5
v 1.2 1.3 -1.7
v 1.8 1.3 -1.7
v 1.9 1.3 -1.7
v 1.8 1.3 -1.8
v 1.9 1.3 -1.8
v 1.2 1.4 -1.1
v 1.8 1.4 -1.1
v 1.2 1.4 -1.5
v 1.8 1.4 -1.5

# faces
f 3/4/1 2/4/1 1/4/1
f 4/4/1 2/4/1 3/4/1
f 7/5/1 6/5/1 5/5/1
f 8/5/1 6/5/1 7/5/1
f 11/4/1 10/4/1 9/4/1
f 12/4/1 10/4/1 11/4/1
f 15/2/1 14/2/1 13/2/1
f 16/2/1 14/2/1 15/2/1
f 17/2/1 15/2/1 13/2/1
f 18/2/1 15/2/1 17/2/1
f 19/2/1 15/2/1 18/2/1
f 20/2/1 14/2/1 16/2/1
f 21/2/1 14/2/1 20/2/1
f 22/2/1 14/2/1 21/2/1
f 23/2/1 19/2/1 18/2/1
f 23/2/1 21/2/1 20/2/1
f 23/2/1 20/2/1 19/2/1
f 24/2/1 21/2/1 23/2/1
f 31/4/1 26/4/1 25/4/1
f 31/4/1 27/4/1 26/4/1
f 31/5/1 28/5/1 27/5/1
f 32/4/1 30/4/1 29/4/1
f 32/5/1 28/5/1 31/5/1
f 32/4/1 29/4/1 28/4/1
f 33/4/1 31/4/1 25/4/1
f 34/4/1 31/4/1 33/4/1
f 35/4/1 30/4/1 32/4/1
f 36/4/1 30/4/1 35/4/1
f 39/2/1 38/2/1 37/2/1
f 40/2/1 38/2/1 39/2/1
f 44/2/1 42/2/1 41/2/1
f 45/2/1 42/2/1 44/2/1
f 46/2/1 44/2/1 43/2/1
f 47/2/1 44/2/1 46/2/1
f 50/5/1 49/5/1 48/5/1
f 51/5/1 49/5/1 50/5/1
f 54/4/1 53/4/1 52/4/1
f 55/4/1 53/4/1 54/4/1
f 58/2/1 57/2/1 56/2/1
f 59/2/1 57/2/1 58/2/1
f 64/5/1 61/5/1 60/5/1
f 65/5/1 63/5/1 62/5/1
f 66/5/1 64/5/1 60/5/1
f 67/5/1 64/5/1 66/5/1
f 68/5/1 63/5/1 65/5/1
f 69/5/1 63/5/1 68/5/1
f 72/4/1 71/4/1 70/4/1
f 73/4/1 71/4/1 72/4/1
f 74/3/1 73/3/1 72/3/1
f 75/3/1 73/3/1 74/3/1
f 78/1/1 77/1/1 76/1/1
f 79/1/1 77/1/1 78/1/1
f 83/4/1 81/4/1 80/4/1
f 83/4/1 82/4/1 81/4/1
f 84/4/1 82/4/1 83/4/1
f 89/5/1 86/5/1 85/5/1
f 90/5/1 86/5/1 89/5/1
f 91/5/1 88/5/1 87/5/1
f 92/5/1 88/5/1 91/5/1
f 93/4/2 94/4/2 99/4/2
f 99/4/2 94/4/2 100/4/2
f 95/4/2 96/4/2 101/4/2
f 101/4/2 96/4/2 102/4/2
f 97/4/2 98/4/2 103/4/2
f 103/4/2 98/4/2 104/4/2
f 99/2/2 100/2/2 105/2/2
f 100/2/2 101/2/2 105/2/2
f 105/2/2 101/2/2 106/2/2
f 103/2/2 104/2/2 107/2/2
f 102/2/2 103/2/2 107/2/2
f 107/2/2 104/2/2 108/2/2
f 109/5/2 110/5/2 111/5/2
f 111/5/2 110/5/2 112/5/2
f 113/4/2 114/4/2 117/4/2
f 115/4/2 116/4/2 118/4/2
f 118/4/2 116/4/2 119/4/2
f 113/4/2 117/4/2 120/4/2
f 120/4/2 117/4/2 121/4/2
f 118/4/2 119/4/2 122/4/2
f 122/4/2 119/4/2 123/4/2
f 120/4/2 121/4/2 124/4/2
f 124/4/2 121/4/2 125/4/2
f 122/4/2 123/4/2 126/4/2
f 126/4/2 123/4/2 127/4/2
f 125/2/2 126/2/2 128/2/2
f 128/2/2 126/2/2 129/2/2
f 130/5/2 131/5/2 132/5/2
f 132/5/2 131/5/2 133/5/2
f 132/3/2 133/3/2 134/3/2
f 134/3/2 133/3/2 135/3/2
f 134/4/2 135/4/2 136/4/2
f 136/4/2 135/4/2 137/4/2
f 138/5/2 139/5/2 142/5/2
f 140/5/2 141/5/2 143/5/2
f 138/5/2 142/5/2 144/5/2
f 142/4/2 143/4/2 145/4/2
f 144/5/2 142/5/2 145/5/2
f 143/5/2 141/5/2 146/5/2
f 145/4/2 143/4/2 146/4/2
f 146/5/2 141/5/2 147/5/2
f 145/4/2 146/4/2 148/4/2
f 148/4/2 146/4/2 149/4/2
f 150/2/2 151/2/2 152/2/2
f 152/2/2 151/2/2 153/2/2
f 154/4/2 155/4/2 156/4/2
f 156/4/2 155/4/2 157/4/2
f 158/2/2 159/2/2 161/2/2
f 161/2/2 159/2/2 162/2/2
f 160/5/2 161/5/2 164/5/2
f 161/2/2 162/2/2 165/2/2
f 164/5/2 161/5/2 165/5/2
f 162/5/2 163/5/2 166/5/2
f 165/2/2 162/2/2 166/2/2
f 166/5/2 163/5/2 167/5/2
f 168/4/2 169/4/2 170/4/2
f 170/4/2 169/4/2 171/4/2
f 176/5/3 175/5/3 174/5/3
f 177/5/3 175/5/3 176/5/3
f 178/4/3 173/4/3 172/4/3
f 179/4/3 173/4/3 178/4/3
f 184/2/3 183/2/3 182/2/3
f 188/5/3 187/5/3 186/5/3
f 189/5/3 187/5/3 188/5/3
f 190/2/3 184/2/3 182/2/3
f 190/2/3 185/2/3 184/2/3
f 191/2/3 185/2/3 190/2/3
f 192/4/3 181/4/3 180/4/3
f 193/4/3 181/4/3 192/4/3
f 194/2/3 190/2/3 182/2/3
f 195/2/3 190/2/3 194/2/3
f 198/4/3 197/4/3 196/4/3
f 199/4/3 197/4/3 198/4/3
f 200/4/3 197/4/3 199/4/3
f 201/4/3 197/4/3 200/4/3
f 206/5/3 203/5/3 202/5/3
f 209/2/3 205/2/3 204/2/3
f 211/5/3 206/5/3 202/5/3
f 212/5/3 206/5/3 211/5/3
f 213/4/3 208/4/3 207/4/3
f 214/4/3 208/4/3 213/4/3
f 215/2/3 210/2/3 209/2/3
f 215/2/3 209/2/3 204/2/3
f 216/2/3 210/2/3 215/2/3
f 217/2/3 210/2/3 216/2/3
f 218/2/3 210/2/3 217/2/3
f 224/2/3 220/2/3 219/2/3
f 225/2/3 220/2/3 224/2/3
f 226/5/3 222/5/3 221/5/3
f 227/3/3 223/3/3 222/3/3
f 227/5/3 222/5/3 226/5/3
f 228/4/3 224/4/3 223/4/3
f 228/3/3 223/3/3 227/3/3
f 229/4/3 224/4/3 228/4/3
f 236/2/3 231/2/3 230/2/3
f 237/2/3 231/2/3 236/2/3
f 238/4/3 233/4/3 232/4/3
f 239/4/3 233/4/3 238/4/3
f 240/4/3 235/4/3 234/4/3
f 241/4/3 235/4/3 240/4/3
f 245/4/3 243/4/3 242/4/3
f 246/3/3 244/3/3 243/3/3
f 246/4/3 243/4/3 245/4/3
f 247/3/3 244/3/3 246/3/3
f 251/4/3 249/4/3 248/4/3
f 252/2/3 250/2/3 249/2/3
f 255/4/3 249/4/3 251/4/3
f 255/2/3 252/2/3 249/2/3
f 256/2/3 252/2/3 255/2/3
f 257/5/3 254/5/3 253/5/3
f 258/5/3 254/5/3 257/5/3
f 259/4/3 255/4/3 251/4/3
f 260/4/3 255/4/3 259/4/3
f 262/2/4 263/2/4 264/2/4
f 261/4/4 262/4/4 267/4/4
f 262/2/4 264/2/4 267/2/4
f 267/2/4 264/2/4 268/2/4
f 265/5/4 266/5/4 269/5/4
f 269/5/4 266/5/4 270/5/4
f 261/4/4 267/4/4 271/4/4
f 271/4/4 267/4/4 272/4/4
f 273/4/4 274/4/4 275/4/4
f 275/4/4 274/4/4 276/4/4
f 276/4/4 274/4/4 277/4/4
f 278/2/4 279/2/4 284/2/4
f 284/2/4 279/2/4 285/2/4
f 280/4/4 281/4/4 286/4/4
f 286/4/4 281/4/4 287/4/4
f 282/4/4 283/4/4 288/4/4
f 288/4/4 283/4/4 289/4/4
f 290/2/4 291/2/4 295/2/4
f 295/2/4 291/2/4 296/2/4
f 292/5/4 293/5/4 297/5/4
f 293/3/4 294/3/4 298/3/4
f 297/5/4 293/5/4 298/5/4
f 294/4/4 295/4/4 299/4/4
f 298/3/4 294/3/4 299/3/4
f 299/4/4 295/4/4 300/4/4
f 301/5/4 302/5/4 305/5/4
f 303/2/4 304/2/4 308/2/4
f 308/2/4 304/2/4 309/2/4
f 301/5/4 305/5/4 311/5/4
f 311/5/4 305/5/4 312/5/4
f 306/4/4 307/4/4 313/4/4
f 313/4/4 307/4/4 314/4/4
f 309/2/4 310/2/4 315/2/4
f 315/2/4 310/2/4 316/2/4
f 317/4/4 318/4/4 319/4/4
f 319/4/4 318/4/4 320/4/4
f 320/4/4 318/4/4 321/4/4
f 321/4/4 318/4/4 322/4/4
f 325/2/4 326/2/4 327/2/4
f 329/5/4 330/5/4 331/5/4
f 331/5/4 330/5/4 332/5/4
f 325/2/4 327/2/4 333/2/4
f 327/2/4 328/2/4 333/2/4
f 333/2/4 328/2/4 334/2/4
f 323/4/4 324/4/4 335/4/4
f 335/4/4 324/4/4 336/4/4
f 325/2/4 333/2/4 337/2/4
f 337/2/4 333/2/4 338/2/4
f 341/5/4 342/5/4 343/5/4
f 343/5/4 342/5/4 344/5/4
f 339/4/4 340/4/4 345/4/4
f 345/4/4 340/4/4 346/4/4
f 349/5/5 348/5/5 347/5/5
f 350/5/5 348/5/5 349/5/5
f 353/5/5 352/5/5 351/5/5
f 354/5/5 352/5/5 353/5/5
f 357/5/5 356/5/5 355/5/5
f 358/5/5 356/5/5 357/5/5
f 362/4/5 360/4/5 359/4/5
f 362/4/5 361/4/5 360/4/5
f 363/4/5 361/4/5 362/4/5
f 365/4/5 361/4/5 363/4/5
f 366/4/5 365/4/5 364/4/5
f 367/4/5 361/4/5 365/4/5
f 367/4/5 365/4/5 366/4/5
f 368/4/5 361/4/5 367/4/5
f 371/4/5 370/4/5 369/4/5
f 372/4/5 370/4/5 371/4/5
f 373/4/5 371/4/5 369/4/5
f 375/4/5 373/4/5 369/4/5
f 375/4/5 374/4/5 373/4/5
f 376/4/5 374/4/5 375/4/5
f 377/4/5 375/4/5 369/4/5
f 378/4/5 370/4/5 372/4/5
f 379/4/5 377/4/5 369/4/5
f 379/4/5 378/4/5 377/4/5
f 380/4/5 370/4/5 378/4/5
f 380/4/5 378/4/5 379/4/5
f 383/4/5 382/4/5 381/4/5
f 384/4/5 382/4/5 383/4/5
f 385/4/5 383/4/5 381/4/5
f 386/4/5 382/4/5 384/4/5
f 387/4/5 385/4/5 381/4/5
f 387/4/5 386/4/5 385/4/5
f 388/4/5 382/4/5 386/4/5
f 388/4/5 386/4/5 387/4/5
f 393/2/5 392/2/5 391/2/5
f 394/2/5 392/2/5 393/2/5
f 395/1/5 390/1/5 389/1/5
f 396/1/5 390/1/5 395/1/5
f 400/2/5 398/2/5 397/2/5
f 401/2/5 398/2/5 400/2/5
f 403/2/5 398/2/5 401/2/5
f 404/2/5 403/2/5 402/2/5
f 405/1/5 399/1/5 398/1/5
f 405/2/5 403/2/5 404/2/5
f 405/2/5 398/2/5 403/2/5
f 406/1/5 399/1/5 405/1/5
f 409/5/5 408/5/5 407/5/5
f 410/5/5 408/5/5 409/5/5
f 413/2/5 412/2/5 411/2/5
f 414/2/5 412/2/5 413/2/5
f 417/5/5 416/5/5 415/5/5
f 418/5/5 416/5/5 417/5/5
f 419/5/6 420/5/6 421/5/6
f 419/5/6 421/5/6 422/5/6
f 419/5/6 422/5/6 423/5/6
f 423/5/6 422/5/6 424/5/6
f 425/5/6 426/5/6 427/5/6
f 427/5/6 426/5/6 428/5/6
f 429/4/6 430/4/6 432/4/6
f 432/4/6 430/4/6 433/4/6
f 431/5/6 432/5/6 434/5/6
f 434/5/6 432/5/6 435/5/6
f 433/4/6 430/4/6 436/4/6
f 435/4/6 436/4/6 437/4/6
f 436/4/6 430/4/6 438/4/6
f 437/4/6 436/4/6 438/4/6
f 439/5/6 440/5/6 441/5/6
f 441/5/6 440/5/6 442/5/6
f 443/4/6 444/4/6 445/4/6
f 445/4/6 444/4/6 446/4/6
f 446/4/6 444/4/6 447/4/6
f 447/4/6 444/4/6 448/4/6
f 449/4/6 450/4/6 451/4/6
f 451/4/6 450/4/6 452/4/6
f 447/3/6 448/3/6 455/3/6
f 453/4/6 454/4/6 456/4/6
f 454/3/6 455/3/6 457/3/6
f 456/4/6 454/4/6 457/4/6
f 455/3/6 448/3/6 458/3/6
f 457/3/6 455/3/6 458/3/6
f 459/4/6 460/4/6 461/4/6
f 461/4/6 460/4/6 462/4/6
f 463/4/6 464/4/6 465/4/6
f 465/4/6 464/4/6 466/4/6
f 466/4/6 467/4/6 469/4/6
f 469/4/6 467/4/6 470/4/6
f 468/4/6 469/4/6 471/4/6
f 471/4/6 469/4/6 472/4/6
f 459/4/6 461/4/6 473/4/6
f 462/4/6 460/4/6 474/4/6
f 459/4/6 473/4/6 475/4/6
f 473/4/6 474/4/6 475/4/6
f 474/4/6 460/4/6 476/4/6
f 475/4/6 474/4/6 476/4/6
f 477/2/6 478/2/6 479/2/6
f 479/2/6 478/2/6 480/2/6
f 481/2/6 482/2/6 483/2/6
f 483/2/6 482/2/6 484/2/6
f 485/2/6 486/2/6 487/2/6
f 487/2/6 486/2/6 488/2/6
f 489/5/6 490/5/6 492/5/6
f 492/5/6 490/5/6 493/5/6
f 491/2/6 492/2/6 496/2/6
f 492/2/6 493/2/6 496/2/6
f 496/2/6 493/2/6 497/2/6
f 494/2/6 495/2/6 498/2/6
f 498/2/6 495/2/6 499/2/6
f 497/2/6 493/2/6 500/2/6
f 499/2/6 500/2/6 501/2/6
f 500/2/6 493/2/6 502/2/6
f 501/2/6 500/2/6 502/2/6
f 502/2/6 493/2/6 503/2/6
f 502/5/6 503/5/6 504/5/6
f 504/5/6 503/5/6 505/5/6
f 506/2/6 507/2/6 508/2/6
f 508/2/6 507/2/6 509/2/6
