# MagicaVoxel @ Ephtracy

# group
o 

# material
mtllib paeleraGris.mtl
usemtl palette

# normals
vn -1 0 0
vn 1 0 0
vn 0 0 1
vn 0 0 -1
vn 0 -1 0
vn 0 1 0

# texcoords
vt 0.306641 0.5
vt 0.650391 0.5
vt 0.802734 0.5
vt 0.900391 0.5
vt 0.986328 0.5
vt 0.990234 0.5
vt 0.994141 0.5

# verts
v 1 0.9 -0.8
v 1 0.9 -1.8
v 1 1 -0.8
v 1 1 -1.8
v 1.1 0 -1.1
v 1.1 0 -1.5
v 1.1 0.1 -1.1
v 1.1 0.1 -1.5
v 1.1 0.8 -0.9
v 1.1 0.8 -1.7
v 1.1 0.9 -0.9
v 1.1 0.9 -1.7
v 1.1 1 -0.9
v 1.1 1 -1.7
v 1.1 1.1 -1.2
v 1.1 1.1 -1.4
v 1.1 1.2 -0.9
v 1.1 1.2 -1.1
v 1.1 1.2 -1.2
v 1.1 1.2 -1.4
v 1.1 1.2 -1.5
v 1.1 1.2 -1.7
v 1.1 1.3 -1.1
v 1.1 1.3 -1.5
v 1.2 0.1 -1
v 1.2 0.1 -1.1
v 1.2 0.1 -1.2
v 1.2 0.1 -1.4
v 1.2 0.1 -1.5
v 1.2 0.1 -1.6
v 1.2 0.2 -1.2
v 1.2 0.2 -1.4
v 1.2 0.8 -1
v 1.2 0.8 -1.2
v 1.2 0.8 -1.4
v 1.2 0.8 -1.6
v 1.2 1.1 -1.2
v 1.2 1.1 -1.4
v 1.2 1.2 -1.2
v 1.2 1.2 -1.4
v 1.2 1.2 -1.5
v 1.2 1.2 -1.7
v 1.2 1.3 -1.1
v 1.2 1.3 -1.5
v 1.2 1.3 -1.7
v 1.2 1.4 -1.1
v 1.2 1.4 -1.5
v 1.3 0.2 -1.2
v 1.3 0.2 -1.4
v 1.3 0.8 -1.2
v 1.3 0.8 -1.4
v 1.3 0.9 -1.2
v 1.3 0.9 -1.4
v 1.3 1 -1.2
v 1.3 1 -1.4
v 1.3 1.2 -0.9
v 1.3 1.2 -1.1
v 1.3 1.3 -0.9
v 1.3 1.3 -1.1
v 1.6 0 -0.9
v 1.6 0 -1
v 1.6 0 -1.6
v 1.6 0 -1.7
v 1.6 0.1 -1
v 1.6 0.1 -1.6
v 1.6 0.2 -0.9
v 1.6 0.2 -1
v 1.6 0.2 -1.6
v 1.6 0.2 -1.7
v 1.7 0.2 -1.1
v 1.7 0.2 -1.5
v 1.7 0.8 -1.1
v 1.7 0.8 -1.5
v 1.7 0.9 -1.1
v 1.7 0.9 -1.5
v 1.7 1 -1
v 1.7 1 -1.2
v 1.7 1 -1.6
v 1.7 1.1 -1
v 1.7 1.1 -1.2
v 1.7 1.1 -1.6
v 1.8 0.9 -1
v 1.8 0.9 -1.1
v 1.8 0.9 -1.6
v 1.8 1 -1
v 1.8 1 -1.2
v 1.8 1 -1.6
v 1.8 1.2 -0.8
v 1.8 1.2 -0.9
v 1.8 1.2 -1.7
v 1.8 1.2 -1.8
v 1.8 1.3 -0.8
v 1.8 1.3 -0.9
v 1.8 1.3 -1.7
v 1.8 1.3 -1.8
v 1.2 0.9 -1
v 1.2 0.9 -1.1
v 1.2 0.9 -1.2
v 1.2 0.9 -1.4
v 1.2 0.9 -1.5
v 1.2 0.9 -1.6
v 1.2 1 -1
v 1.2 1 -1.1
v 1.2 1 -1.2
v 1.2 1 -1.4
v 1.2 1 -1.5
v 1.2 1 -1.6
v 1.2 1.1 -1
v 1.2 1.1 -1.2
v 1.2 1.1 -1.4
v 1.2 1.1 -1.6
v 1.3 0 -1.1
v 1.3 0 -1.5
v 1.3 0.1 -1.1
v 1.3 0.1 -1.5
v 1.3 0.2 -1.1
v 1.3 0.2 -1.2
v 1.3 0.2 -1.4
v 1.3 0.2 -1.5
v 1.3 0.8 -1.2
v 1.3 0.8 -1.4
v 1.3 0.8 -1.5
v 1.3 0.9 -1.1
v 1.3 0.9 -1.2
v 1.3 0.9 -1.4
v 1.3 0.9 -1.5
v 1.3 1 -1.1
v 1.3 1 -1.2
v 1.3 1 -1.4
v 1.3 1 -1.5
v 1.3 1.1 -1.2
v 1.3 1.1 -1.4
v 1.4 0.2 -1.2
v 1.4 0.2 -1.4
v 1.4 0.8 -1.2
v 1.4 0.8 -1.4
v 1.4 0.9 -1.2
v 1.4 0.9 -1.4
v 1.4 1 -1.2
v 1.4 1 -1.4
v 1.8 0 -0.9
v 1.8 0 -1
v 1.8 0 -1.6
v 1.8 0 -1.7
v 1.8 0.1 -1
v 1.8 0.1 -1.6
v 1.8 0.2 -0.9
v 1.8 0.2 -1
v 1.8 0.2 -1.6
v 1.8 0.2 -1.7
v 1.8 0.8 -1
v 1.8 0.8 -1.6
v 1.8 1.3 -1.1
v 1.8 1.3 -1.5
v 1.8 1.4 -1.1
v 1.8 1.4 -1.5
v 1.9 0.8 -0.9
v 1.9 0.8 -1.7
v 1.9 0.9 -0.9
v 1.9 0.9 -1.7
v 1.9 1 -0.9
v 1.9 1 -1.7
v 1.9 1.2 -0.8
v 1.9 1.2 -0.9
v 1.9 1.2 -1.7
v 1.9 1.2 -1.8
v 1.9 1.3 -0.8
v 1.9 1.3 -0.9
v 1.9 1.3 -1.7
v 1.9 1.3 -1.8
v 2 0.9 -0.8
v 2 0.9 -1.8
v 2 1 -0.8
v 2 1 -1.8
v 1 0.9 -0.8
v 1 1 -0.8
v 1.8 1.2 -0.8
v 1.8 1.3 -0.8
v 1.9 1.2 -0.8
v 1.9 1.3 -0.8
v 2 0.9 -0.8
v 2 1 -0.8
v 1.1 0.8 -0.9
v 1.1 0.9 -0.9
v 1.1 1 -0.9
v 1.1 1.2 -0.9
v 1.3 1.2 -0.9
v 1.3 1.3 -0.9
v 1.6 0 -0.9
v 1.6 0.2 -0.9
v 1.8 0 -0.9
v 1.8 0.2 -0.9
v 1.8 1.2 -0.9
v 1.8 1.3 -0.9
v 1.9 0.8 -0.9
v 1.9 0.9 -0.9
v 1.9 1 -0.9
v 1.9 1.2 -0.9
v 1.2 0.1 -1
v 1.2 0.8 -1
v 1.6 0.1 -1
v 1.6 0.2 -1
v 1.8 0.2 -1
v 1.8 0.8 -1
v 1.1 0 -1.1
v 1.1 0.1 -1.1
v 1.1 1.2 -1.1
v 1.1 1.3 -1.1
v 1.2 0.1 -1.1
v 1.2 0.9 -1.1
v 1.2 1 -1.1
v 1.2 1.3 -1.1
v 1.2 1.4 -1.1
v 1.3 0 -1.1
v 1.3 0.1 -1.1
v 1.3 0.9 -1.1
v 1.3 1 -1.1
v 1.3 1.2 -1.1
v 1.3 1.3 -1.1
v 1.8 1.3 -1.1
v 1.8 1.4 -1.1
v 1.2 1 -1.2
v 1.2 1.1 -1.2
v 1.3 0.2 -1.2
v 1.3 0.8 -1.2
v 1.3 0.9 -1.2
v 1.3 1 -1.2
v 1.3 1.1 -1.2
v 1.4 0.2 -1.2
v 1.4 0.8 -1.2
v 1.4 0.9 -1.2
v 1.4 1 -1.2
v 1.1 1.1 -1.4
v 1.1 1.2 -1.4
v 1.2 0.2 -1.4
v 1.2 0.8 -1.4
v 1.2 0.9 -1.4
v 1.2 1 -1.4
v 1.2 1.1 -1.4
v 1.2 1.2 -1.4
v 1.3 0.2 -1.4
v 1.3 0.8 -1.4
v 1.3 0.9 -1.4
v 1.3 1 -1.4
v 1.3 0.2 -1.5
v 1.3 0.8 -1.5
v 1.3 0.9 -1.5
v 1.7 0.2 -1.5
v 1.7 0.8 -1.5
v 1.7 0.9 -1.5
v 1.2 0.9 -1.6
v 1.2 1 -1.6
v 1.2 1.1 -1.6
v 1.3 0.9 -1.6
v 1.3 1.1 -1.6
v 1.4 1.1 -1.6
v 1.6 0 -1.6
v 1.6 0.1 -1.6
v 1.7 1 -1.6
v 1.7 1.1 -1.6
v 1.8 0 -1.6
v 1.8 0.1 -1.6
v 1.8 0.9 -1.6
v 1.8 1 -1.6
v 1.2 0.9 -1
v 1.2 1 -1
v 1.2 1.1 -1
v 1.3 1.1 -1
v 1.4 1.1 -1
v 1.6 0 -1
v 1.6 0.1 -1
v 1.7 1 -1
v 1.7 1.1 -1
v 1.8 0 -1
v 1.8 0.1 -1
v 1.8 0.9 -1
v 1.8 1 -1
v 1.3 0.2 -1.1
v 1.3 0.9 -1.1
v 1.7 0.2 -1.1
v 1.7 0.8 -1.1
v 1.7 0.9 -1.1
v 1.1 1.1 -1.2
v 1.1 1.2 -1.2
v 1.2 0.2 -1.2
v 1.2 0.8 -1.2
v 1.2 0.9 -1.2
v 1.2 1 -1.2
v 1.2 1.1 -1.2
v 1.2 1.2 -1.2
v 1.3 0.2 -1.2
v 1.3 0.8 -1.2
v 1.3 0.9 -1.2
v 1.3 1 -1.2
v 1.2 1 -1.4
v 1.2 1.1 -1.4
v 1.3 0.2 -1.4
v 1.3 0.8 -1.4
v 1.3 0.9 -1.4
v 1.3 1 -1.4
v 1.3 1.1 -1.4
v 1.4 0.2 -1.4
v 1.4 0.8 -1.4
v 1.4 0.9 -1.4
v 1.4 1 -1.4
v 1.1 0 -1.5
v 1.1 0.1 -1.5
v 1.1 1.2 -1.5
v 1.1 1.3 -1.5
v 1.2 0.1 -1.5
v 1.2 0.9 -1.5
v 1.2 1 -1.5
v 1.2 1.2 -1.5
v 1.2 1.3 -1.5
v 1.2 1.4 -1.5
v 1.3 0 -1.5
v 1.3 0.1 -1.5
v 1.3 0.9 -1.5
v 1.3 1 -1.5
v 1.8 1.3 -1.5
v 1.8 1.4 -1.5
v 1.2 0.1 -1.6
v 1.2 0.8 -1.6
v 1.6 0.1 -1.6
v 1.6 0.2 -1.6
v 1.8 0.2 -1.6
v 1.8 0.8 -1.6
v 1.1 0.8 -1.7
v 1.1 0.9 -1.7
v 1.1 1 -1.7
v 1.1 1.2 -1.7
v 1.2 1.2 -1.7
v 1.2 1.3 -1.7
v 1.6 0 -1.7
v 1.6 0.2 -1.7
v 1.8 0 -1.7
v 1.8 0.2 -1.7
v 1.8 1.2 -1.7
v 1.8 1.3 -1.7
v 1.9 0.8 -1.7
v 1.9 0.9 -1.7
v 1.9 1 -1.7
v 1.9 1.2 -1.7
v 1 0.9 -1.8
v 1 1 -1.8
v 1.8 1.2 -1.8
v 1.8 1.3 -1.8
v 1.9 1.2 -1.8
v 1.9 1.3 -1.8
v 2 0.9 -1.8
v 2 1 -1.8
v 1.6 0 -0.9
v 1.8 0 -0.9
v 1.6 0 -1
v 1.8 0 -1
v 1.1 0 -1.1
v 1.3 0 -1.1
v 1.1 0 -1.5
v 1.3 0 -1.5
v 1.6 0 -1.6
v 1.8 0 -1.6
v 1.6 0 -1.7
v 1.8 0 -1.7
v 1.2 0.1 -1
v 1.6 0.1 -1
v 1.8 0.1 -1
v 1.2 0.1 -1.1
v 1.3 0.1 -1.1
v 1.2 0.1 -1.5
v 1.3 0.1 -1.5
v 1.2 0.1 -1.6
v 1.6 0.1 -1.6
v 1.8 0.1 -1.6
v 1.1 0.8 -0.9
v 1.9 0.8 -0.9
v 1.2 0.8 -1
v 1.8 0.8 -1
v 1.2 0.8 -1.2
v 1.3 0.8 -1.2
v 1.2 0.8 -1.4
v 1.3 0.8 -1.4
v 1.2 0.8 -1.6
v 1.8 0.8 -1.6
v 1.1 0.8 -1.7
v 1.9 0.8 -1.7
v 1 0.9 -0.8
v 2 0.9 -0.8
v 1.1 0.9 -0.9
v 1.9 0.9 -0.9
v 1.1 0.9 -1.7
v 1.9 0.9 -1.7
v 1 0.9 -1.8
v 2 0.9 -1.8
v 1.7 1 -1
v 1.8 1 -1
v 1.2 1 -1.2
v 1.3 1 -1.2
v 1.7 1 -1.2
v 1.8 1 -1.2
v 1.2 1 -1.4
v 1.3 1 -1.4
v 1.7 1 -1.6
v 1.8 1 -1.6
v 1.2 1.1 -1
v 1.3 1.1 -1
v 1.4 1.1 -1
v 1.7 1.1 -1
v 1.2 1.1 -1.2
v 1.3 1.1 -1.2
v 1.4 1.1 -1.2
v 1.7 1.1 -1.2
v 1.2 1.1 -1.4
v 1.3 1.1 -1.4
v 1.2 1.1 -1.6
v 1.3 1.1 -1.6
v 1.4 1.1 -1.6
v 1.7 1.1 -1.6
v 1.8 1.2 -0.8
v 1.9 1.2 -0.8
v 1.8 1.2 -0.9
v 1.9 1.2 -0.9
v 1.1 1.2 -1.2
v 1.2 1.2 -1.2
v 1.1 1.2 -1.4
v 1.2 1.2 -1.4
v 1.8 1.2 -1.7
v 1.9 1.2 -1.7
v 1.8 1.2 -1.8
v 1.9 1.2 -1.8
v 1.1 0.1 -1.1
v 1.2 0.1 -1.1
v 1.2 0.1 -1.2
v 1.2 0.1 -1.4
v 1.1 0.1 -1.5
v 1.2 0.1 -1.5
v 1.6 0.2 -0.9
v 1.8 0.2 -0.9
v 1.6 0.2 -1
v 1.8 0.2 -1
v 1.3 0.2 -1.1
v 1.7 0.2 -1.1
v 1.2 0.2 -1.2
v 1.3 0.2 -1.2
v 1.4 0.2 -1.2
v 1.2 0.2 -1.4
v 1.3 0.2 -1.4
v 1.4 0.2 -1.4
v 1.3 0.2 -1.5
v 1.7 0.2 -1.5
v 1.6 0.2 -1.6
v 1.8 0.2 -1.6
v 1.6 0.2 -1.7
v 1.8 0.2 -1.7
v 1.2 0.9 -1
v 1.8 0.9 -1
v 1.2 0.9 -1.1
v 1.3 0.9 -1.1
v 1.7 0.9 -1.1
v 1.8 0.9 -1.1
v 1.2 0.9 -1.2
v 1.3 0.9 -1.2
v 1.2 0.9 -1.4
v 1.3 0.9 -1.4
v 1.2 0.9 -1.5
v 1.3 0.9 -1.5
v 1.7 0.9 -1.5
v 1.2 0.9 -1.6
v 1.3 0.9 -1.6
v 1.8 0.9 -1.6
v 1 1 -0.8
v 2 1 -0.8
v 1.1 1 -0.9
v 1.9 1 -0.9
v 1.2 1 -1.1
v 1.3 1 -1.1
v 1.2 1 -1.2
v 1.3 1 -1.2
v 1.4 1 -1.2
v 1.2 1 -1.4
v 1.3 1 -1.4
v 1.4 1 -1.4
v 1.2 1 -1.5
v 1.3 1 -1.5
v 1.1 1 -1.7
v 1.9 1 -1.7
v 1 1 -1.8
v 2 1 -1.8
v 1.1 1.1 -1.2
v 1.2 1.1 -1.2
v 1.1 1.1 -1.4
v 1.2 1.1 -1.4
v 1.1 1.2 -0.9
v 1.3 1.2 -0.9
v 1.1 1.2 -1.1
v 1.3 1.2 -1.1
v 1.1 1.2 -1.5
v 1.2 1.2 -1.5
v 1.1 1.2 -1.7
v 1.2 1.2 -1.7
v 1.8 1.3 -0.8
v 1.9 1.3 -0.8
v 1.3 1.3 -0.9
v 1.8 1.3 -0.9
v 1.9 1.3 -0.9
v 1.1 1.3 -1.1
v 1.2 1.3 -1.1
v 1.3 1.3 -1.1
v 1.8 1.3 -1.1
v 1.1 1.3 -1.5
v 1.2 1.3 -1.5
v 1.8 1.3 -1.5
v 1.2 1.3 -1.7
v 1.8 1.3 -1.7
v 1.9 1.3 -1.7
v 1.8 1.3 -1.8
v 1.9 1.3 -1.8
v 1.2 1.4 -1.1
v 1.8 1.4 -1.1
v 1.2 1.4 -1.5
v 1.8 1.4 -1.5

# faces
f 3/5/1 2/5/1 1/5/1
f 4/5/1 2/5/1 3/5/1
f 7/7/1 6/7/1 5/7/1
f 8/7/1 6/7/1 7/7/1
f 11/5/1 10/5/1 9/5/1
f 12/5/1 10/5/1 11/5/1
f 15/6/1 14/6/1 13/6/1
f 16/6/1 14/6/1 15/6/1
f 17/6/1 15/6/1 13/6/1
f 18/6/1 15/6/1 17/6/1
f 19/6/1 15/6/1 18/6/1
f 20/6/1 14/6/1 16/6/1
f 21/6/1 14/6/1 20/6/1
f 22/6/1 14/6/1 21/6/1
f 23/6/1 19/6/1 18/6/1
f 23/6/1 21/6/1 20/6/1
f 23/6/1 20/6/1 19/6/1
f 24/6/1 21/6/1 23/6/1
f 31/5/1 26/5/1 25/5/1
f 31/5/1 27/5/1 26/5/1
f 31/7/1 28/7/1 27/7/1
f 32/5/1 30/5/1 29/5/1
f 32/7/1 28/7/1 31/7/1
f 32/5/1 29/5/1 28/5/1
f 33/5/1 31/5/1 25/5/1
f 34/5/1 31/5/1 33/5/1
f 35/5/1 30/5/1 32/5/1
f 36/5/1 30/5/1 35/5/1
f 39/6/1 38/6/1 37/6/1
f 40/6/1 38/6/1 39/6/1
f 44/6/1 42/6/1 41/6/1
f 45/6/1 42/6/1 44/6/1
f 46/6/1 44/6/1 43/6/1
f 47/6/1 44/6/1 46/6/1
f 50/7/1 49/7/1 48/7/1
f 51/7/1 49/7/1 50/7/1
f 54/5/1 53/5/1 52/5/1
f 55/5/1 53/5/1 54/5/1
f 58/6/1 57/6/1 56/6/1
f 59/6/1 57/6/1 58/6/1
f 64/7/1 61/7/1 60/7/1
f 65/7/1 63/7/1 62/7/1
f 66/7/1 64/7/1 60/7/1
f 67/7/1 64/7/1 66/7/1
f 68/7/1 63/7/1 65/7/1
f 69/7/1 63/7/1 68/7/1
f 72/5/1 71/5/1 70/5/1
f 73/5/1 71/5/1 72/5/1
f 74/4/1 73/4/1 72/4/1
f 75/4/1 73/4/1 74/4/1
f 79/2/1 77/2/1 76/2/1
f 80/1/1 78/1/1 77/1/1
f 80/2/1 77/2/1 79/2/1
f 81/1/1 78/1/1 80/1/1
f 85/5/1 83/5/1 82/5/1
f 85/5/1 84/5/1 83/5/1
f 86/5/1 84/5/1 85/5/1
f 87/5/1 84/5/1 86/5/1
f 92/7/1 89/7/1 88/7/1
f 93/7/1 89/7/1 92/7/1
f 94/7/1 91/7/1 90/7/1
f 95/7/1 91/7/1 94/7/1
f 96/5/2 97/5/2 102/5/2
f 102/5/2 97/5/2 103/5/2
f 98/5/2 99/5/2 104/5/2
f 104/5/2 99/5/2 105/5/2
f 100/5/2 101/5/2 106/5/2
f 106/5/2 101/5/2 107/5/2
f 102/6/2 103/6/2 108/6/2
f 103/6/2 104/6/2 108/6/2
f 108/6/2 104/6/2 109/6/2
f 106/6/2 107/6/2 110/6/2
f 105/6/2 106/6/2 110/6/2
f 110/6/2 107/6/2 111/6/2
f 112/7/2 113/7/2 114/7/2
f 114/7/2 113/7/2 115/7/2
f 116/5/2 117/5/2 120/5/2
f 118/5/2 119/5/2 121/5/2
f 121/5/2 119/5/2 122/5/2
f 116/5/2 120/5/2 123/5/2
f 123/5/2 120/5/2 124/5/2
f 121/5/2 122/5/2 125/5/2
f 125/5/2 122/5/2 126/5/2
f 123/5/2 124/5/2 127/5/2
f 127/5/2 124/5/2 128/5/2
f 125/5/2 126/5/2 129/5/2
f 129/5/2 126/5/2 130/5/2
f 128/6/2 129/6/2 131/6/2
f 131/6/2 129/6/2 132/6/2
f 133/7/2 134/7/2 135/7/2
f 135/7/2 134/7/2 136/7/2
f 135/4/2 136/4/2 137/4/2
f 137/4/2 136/4/2 138/4/2
f 137/5/2 138/5/2 139/5/2
f 139/5/2 138/5/2 140/5/2
f 141/7/2 142/7/2 145/7/2
f 143/7/2 144/7/2 146/7/2
f 141/7/2 145/7/2 147/7/2
f 145/5/2 146/5/2 148/5/2
f 147/7/2 145/7/2 148/7/2
f 146/7/2 144/7/2 149/7/2
f 148/5/2 146/5/2 149/5/2
f 149/7/2 144/7/2 150/7/2
f 148/5/2 149/5/2 151/5/2
f 151/5/2 149/5/2 152/5/2
f 153/6/2 154/6/2 155/6/2
f 155/6/2 154/6/2 156/6/2
f 157/5/2 158/5/2 159/5/2
f 159/5/2 158/5/2 160/5/2
f 161/6/2 162/6/2 164/6/2
f 164/6/2 162/6/2 165/6/2
f 163/7/2 164/7/2 167/7/2
f 164/6/2 165/6/2 168/6/2
f 167/7/2 164/7/2 168/7/2
f 165/7/2 166/7/2 169/7/2
f 168/6/2 165/6/2 169/6/2
f 169/7/2 166/7/2 170/7/2
f 171/5/2 172/5/2 173/5/2
f 173/5/2 172/5/2 174/5/2
f 179/7/3 178/7/3 177/7/3
f 180/7/3 178/7/3 179/7/3
f 181/5/3 176/5/3 175/5/3
f 182/5/3 176/5/3 181/5/3
f 187/6/3 186/6/3 185/6/3
f 191/7/3 190/7/3 189/7/3
f 192/7/3 190/7/3 191/7/3
f 193/6/3 187/6/3 185/6/3
f 193/6/3 188/6/3 187/6/3
f 194/6/3 188/6/3 193/6/3
f 195/5/3 184/5/3 183/5/3
f 196/5/3 184/5/3 195/5/3
f 197/6/3 193/6/3 185/6/3
f 198/6/3 193/6/3 197/6/3
f 201/5/3 200/5/3 199/5/3
f 202/5/3 200/5/3 201/5/3
f 203/5/3 200/5/3 202/5/3
f 204/5/3 200/5/3 203/5/3
f 209/7/3 206/7/3 205/7/3
f 212/6/3 208/6/3 207/6/3
f 214/7/3 209/7/3 205/7/3
f 215/7/3 209/7/3 214/7/3
f 216/5/3 211/5/3 210/5/3
f 217/5/3 211/5/3 216/5/3
f 218/6/3 213/6/3 212/6/3
f 218/6/3 212/6/3 207/6/3
f 219/6/3 213/6/3 218/6/3
f 220/6/3 213/6/3 219/6/3
f 221/6/3 213/6/3 220/6/3
f 227/6/3 223/6/3 222/6/3
f 228/6/3 223/6/3 227/6/3
f 229/7/3 225/7/3 224/7/3
f 230/4/3 226/4/3 225/4/3
f 230/7/3 225/7/3 229/7/3
f 231/5/3 227/5/3 226/5/3
f 231/4/3 226/4/3 230/4/3
f 232/5/3 227/5/3 231/5/3
f 239/6/3 234/6/3 233/6/3
f 240/6/3 234/6/3 239/6/3
f 241/5/3 236/5/3 235/5/3
f 242/5/3 236/5/3 241/5/3
f 243/5/3 238/5/3 237/5/3
f 244/5/3 238/5/3 243/5/3
f 248/5/3 246/5/3 245/5/3
f 249/4/3 247/4/3 246/4/3
f 249/5/3 246/5/3 248/5/3
f 250/4/3 247/4/3 249/4/3
f 254/5/3 252/5/3 251/5/3
f 255/6/3 253/6/3 252/6/3
f 256/6/3 255/6/3 252/6/3
f 259/5/3 252/5/3 254/5/3
f 259/6/3 256/6/3 252/6/3
f 260/6/3 256/6/3 259/6/3
f 261/7/3 258/7/3 257/7/3
f 262/7/3 258/7/3 261/7/3
f 263/5/3 259/5/3 254/5/3
f 264/5/3 259/5/3 263/5/3
f 266/6/4 267/6/4 268/6/4
f 266/6/4 268/6/4 269/6/4
f 265/5/4 266/5/4 272/5/4
f 266/6/4 269/6/4 272/6/4
f 272/6/4 269/6/4 273/6/4
f 270/7/4 271/7/4 274/7/4
f 274/7/4 271/7/4 275/7/4
f 265/5/4 272/5/4 276/5/4
f 276/5/4 272/5/4 277/5/4
f 278/5/4 279/5/4 280/5/4
f 280/5/4 279/5/4 281/5/4
f 281/5/4 279/5/4 282/5/4
f 283/6/4 284/6/4 289/6/4
f 289/6/4 284/6/4 290/6/4
f 285/5/4 286/5/4 291/5/4
f 291/5/4 286/5/4 292/5/4
f 287/5/4 288/5/4 293/5/4
f 293/5/4 288/5/4 294/5/4
f 295/6/4 296/6/4 300/6/4
f 300/6/4 296/6/4 301/6/4
f 297/7/4 298/7/4 302/7/4
f 298/4/4 299/4/4 303/4/4
f 302/7/4 298/7/4 303/7/4
f 299/5/4 300/5/4 304/5/4
f 303/4/4 299/4/4 304/4/4
f 304/5/4 300/5/4 305/5/4
f 306/7/4 307/7/4 310/7/4
f 308/6/4 309/6/4 313/6/4
f 313/6/4 309/6/4 314/6/4
f 306/7/4 310/7/4 316/7/4
f 316/7/4 310/7/4 317/7/4
f 311/5/4 312/5/4 318/5/4
f 318/5/4 312/5/4 319/5/4
f 314/6/4 315/6/4 320/6/4
f 320/6/4 315/6/4 321/6/4
f 322/5/4 323/5/4 324/5/4
f 324/5/4 323/5/4 325/5/4
f 325/5/4 323/5/4 326/5/4
f 326/5/4 323/5/4 327/5/4
f 330/6/4 331/6/4 332/6/4
f 334/7/4 335/7/4 336/7/4
f 336/7/4 335/7/4 337/7/4
f 330/6/4 332/6/4 338/6/4
f 332/6/4 333/6/4 338/6/4
f 338/6/4 333/6/4 339/6/4
f 328/5/4 329/5/4 340/5/4
f 340/5/4 329/5/4 341/5/4
f 330/6/4 338/6/4 342/6/4
f 342/6/4 338/6/4 343/6/4
f 346/7/4 347/7/4 348/7/4
f 348/7/4 347/7/4 349/7/4
f 344/5/4 345/5/4 350/5/4
f 350/5/4 345/5/4 351/5/4
f 354/7/5 353/7/5 352/7/5
f 355/7/5 353/7/5 354/7/5
f 358/7/5 357/7/5 356/7/5
f 359/7/5 357/7/5 358/7/5
f 362/7/5 361/7/5 360/7/5
f 363/7/5 361/7/5 362/7/5
f 367/5/5 365/5/5 364/5/5
f 367/5/5 366/5/5 365/5/5
f 368/5/5 366/5/5 367/5/5
f 370/5/5 366/5/5 368/5/5
f 371/5/5 370/5/5 369/5/5
f 372/5/5 366/5/5 370/5/5
f 372/5/5 370/5/5 371/5/5
f 373/5/5 366/5/5 372/5/5
f 376/5/5 375/5/5 374/5/5
f 377/5/5 375/5/5 376/5/5
f 378/5/5 376/5/5 374/5/5
f 380/5/5 378/5/5 374/5/5
f 380/5/5 379/5/5 378/5/5
f 381/5/5 379/5/5 380/5/5
f 382/5/5 380/5/5 374/5/5
f 383/5/5 375/5/5 377/5/5
f 384/5/5 382/5/5 374/5/5
f 384/5/5 383/5/5 382/5/5
f 385/5/5 375/5/5 383/5/5
f 385/5/5 383/5/5 384/5/5
f 388/5/5 387/5/5 386/5/5
f 389/5/5 387/5/5 388/5/5
f 390/5/5 388/5/5 386/5/5
f 391/5/5 387/5/5 389/5/5
f 392/5/5 390/5/5 386/5/5
f 392/5/5 391/5/5 390/5/5
f 393/5/5 387/5/5 391/5/5
f 393/5/5 391/5/5 392/5/5
f 398/2/5 395/2/5 394/2/5
f 399/2/5 395/2/5 398/2/5
f 400/6/5 397/6/5 396/6/5
f 401/6/5 397/6/5 400/6/5
f 402/1/5 399/1/5 398/1/5
f 403/1/5 399/1/5 402/1/5
f 408/6/5 405/6/5 404/6/5
f 409/3/5 406/3/5 405/3/5
f 409/6/5 405/6/5 408/6/5
f 410/2/5 407/2/5 406/2/5
f 410/3/5 406/3/5 409/3/5
f 411/2/5 407/2/5 410/2/5
f 413/3/5 410/3/5 409/3/5
f 414/6/5 413/6/5 412/6/5
f 415/3/5 410/3/5 413/3/5
f 415/6/5 413/6/5 414/6/5
f 416/1/5 411/1/5 410/1/5
f 416/3/5 410/3/5 415/3/5
f 417/1/5 411/1/5 416/1/5
f 420/7/5 419/7/5 418/7/5
f 421/7/5 419/7/5 420/7/5
f 424/6/5 423/6/5 422/6/5
f 425/6/5 423/6/5 424/6/5
f 428/7/5 427/7/5 426/7/5
f 429/7/5 427/7/5 428/7/5
f 430/7/6 431/7/6 432/7/6
f 430/7/6 432/7/6 433/7/6
f 430/7/6 433/7/6 434/7/6
f 434/7/6 433/7/6 435/7/6
f 436/7/6 437/7/6 438/7/6
f 438/7/6 437/7/6 439/7/6
f 440/5/6 441/5/6 443/5/6
f 443/5/6 441/5/6 444/5/6
f 442/7/6 443/7/6 445/7/6
f 445/7/6 443/7/6 446/7/6
f 444/5/6 441/5/6 447/5/6
f 446/5/6 447/5/6 448/5/6
f 447/5/6 441/5/6 449/5/6
f 448/5/6 447/5/6 449/5/6
f 450/7/6 451/7/6 452/7/6
f 452/7/6 451/7/6 453/7/6
f 454/5/6 455/5/6 456/5/6
f 456/5/6 455/5/6 457/5/6
f 457/5/6 455/5/6 458/5/6
f 458/5/6 455/5/6 459/5/6
f 460/5/6 461/5/6 462/5/6
f 462/5/6 461/5/6 463/5/6
f 458/4/6 459/4/6 466/4/6
f 464/5/6 465/5/6 467/5/6
f 465/4/6 466/4/6 468/4/6
f 467/5/6 465/5/6 468/5/6
f 466/4/6 459/4/6 469/4/6
f 468/4/6 466/4/6 469/4/6
f 470/5/6 471/5/6 472/5/6
f 472/5/6 471/5/6 473/5/6
f 474/5/6 475/5/6 476/5/6
f 476/5/6 475/5/6 477/5/6
f 477/5/6 478/5/6 480/5/6
f 480/5/6 478/5/6 481/5/6
f 479/5/6 480/5/6 482/5/6
f 482/5/6 480/5/6 483/5/6
f 470/5/6 472/5/6 484/5/6
f 473/5/6 471/5/6 485/5/6
f 470/5/6 484/5/6 486/5/6
f 484/5/6 485/5/6 486/5/6
f 485/5/6 471/5/6 487/5/6
f 486/5/6 485/5/6 487/5/6
f 488/6/6 489/6/6 490/6/6
f 490/6/6 489/6/6 491/6/6
f 492/6/6 493/6/6 494/6/6
f 494/6/6 493/6/6 495/6/6
f 496/6/6 497/6/6 498/6/6
f 498/6/6 497/6/6 499/6/6
f 500/7/6 501/7/6 503/7/6
f 503/7/6 501/7/6 504/7/6
f 502/6/6 503/6/6 507/6/6
f 503/6/6 504/6/6 507/6/6
f 507/6/6 504/6/6 508/6/6
f 505/6/6 506/6/6 509/6/6
f 509/6/6 506/6/6 510/6/6
f 508/6/6 504/6/6 511/6/6
f 510/6/6 511/6/6 512/6/6
f 511/6/6 504/6/6 513/6/6
f 512/6/6 511/6/6 513/6/6
f 513/6/6 504/6/6 514/6/6
f 513/7/6 514/7/6 515/7/6
f 515/7/6 514/7/6 516/7/6
f 517/6/6 518/6/6 519/6/6
f 519/6/6 518/6/6 520/6/6
